<svg xmlns="http://www.w3.org/2000/svg" version="1.1" xmlns:xlink="http://www.w3.org/1999/xlink" xmlns:svgjs="http://svgjs.dev/svgjs" viewBox="0 0 1422 800" opacity="0.56"><g fill="none" stroke-width="1.5" stroke="hsl(198, 38%, 80%)" stroke-linecap="round"><path d="M1154.44 617.74C1350.48 649.39 1381.93 672.2 1231.67 680.12 1023.59 680.29 918.46 653.81 975.04 597.32 1141.06 538.04 1285.36 472.85 1317.26 436.12 1224.04 464.18 1057.74 567.74 899.58 735.68 796.44 898.35 775.16 990.13 812.34 947.56 889.73 800.3 963.52 639.91 1011.84 599.82 1045.08 842.49 984.19 883.95 936.24 633.65 904.58 720.45 875.37 938.73 842.45 1071.68 801.4 1001.96 742.18 792.45 654.9 620.3 551.72 605.68 425.81 738.32 299.63 899.44 213.67 985.98 189.51 938.14 251.16 797.03 367.83 622.47 496.6 490.92 556.87 429.46 492.01 434.75 319.32 481.57 130.11 534.95 50.32 594.75 137.44 629.88 333.3 638.22 471.34 640.54 433.48 623.65 237.44 592 54.96 560.35 51.35 515.43 219.48 453.43 421.84 385.41 503.3 292.7 424.01 178.04 251.14 69.81 119.48 -29.14 109.43 -83.24 221.89 -70.58 394.3 15.5 545.3 148.58 631.99 248.22 635.93 258.56 586.35 139.09 502.62 -54.97 429.51 -216.02 385.95 -224.64 361.43 -75.72 367.45 115.78 391.71 173.33 424.21 28.21 459.79 -196.48 491.44 -283.34 523.1 -142.25 549.33 82.49 576.52 177.16 611.96 65.66 663.52 -134.87 742.89 -245.09 841.31 -181.83 966.54 6.94 1099.06 187.16 1197.42 262.71 1238.92 208.46 1193.72 87.28 1084.21 -39.17 949.33 -97.3 869.83 -76.58 912.84 8.93 1072.88 126.25 1268.96 240.38 1371.44 351.73 1308 435.78 1117.85 495.31 961.94 547.09 971.97 586.08 1154.44 617.74Q1154.44 617.74 1154.44 617.74" opacity="0.60"></path><path d="M1088.94 222.31C1263.87 249.44 1328.08 263.74 1247.89 270.61 1075.68 283.81 914.37 302.54 846.11 340.34 894.95 401.3 1020.12 494.8 1149.06 618.56 1231.78 742.56 1228.77 851.35 1152.84 904.82 1027.59 880.89 895.21 779.96 785.77 639.21 704.13 538.88 660.84 532.94 644.26 648.4 653.68 905.16 664.21 773.8 632.84 568.15 605.71 629.45 561.22 808.05 503.43 967.15 449.06 1001.63 389.79 887.78 338.31 706.24 307.88 557.29 306.48 517.81 346.32 585.33 413.94 718.39 507.36 838.12 597.06 894.77 637.42 877.43 608.27 793.98 497.29 680.46 340.11 553.73 190.61 447.28 121.88 370.06 170.25 312.76 316.12 278.01 477.85 254.09 547.58 237.02 477.87 217.65 302.94 190.52 138.19 163.39 97.06 129.78 197.79 95.69 376.17 68.44 526.26 53.83 573.83 64.12 505.36 94.31 371.8 156.08 247.78 241 180.32 312.7 201.39 357.21 291.39 338.99 424.02 246.79 555.4 94.89 658.07 -66.41 728.76 -162.19 760.85 -147.06 768.23 -18.02 755.49 143.62 740.28 242.06 734.24 197.15 725.46 27.6 733.12 -156.5 760.25 -217.85 787.37 -107.5 832.68 88.49 892.62 227.13 949.83 220.6 1014.39 86.1 1074.17 -75.8 1113.81 -171.39 1126.41 -141.14 1097.55 -12.56 1036.7 156.43 944.28 289.54 847.2 349.03 792.74 331.12 803.82 261.29 899.51 179.1 1130.72 72.74 1203.09 58.92 967.86 112.2 877.57 156.49 924.15 195.17 1088.87 222.3Q1088.94 222.31 1088.94 222.31" opacity="0.44"></path><path d="M1022.59 386.46C1173.41 409.07 1256.45 448.47 1238.95 502.64 1132.87 556.03 984.92 621.06 854.4 690 781.41 746.61 784.83 789.74 848.63 803.77 951.16 784.25 1050.07 724.9 1118.04 632.2 1149.07 539.32 1134.24 464.88 1086.13 444.64 1012.33 498.77 930.26 620.25 853.16 774.15 775.08 898.21 710.92 942.38 661.94 878.31 615.09 737.94 580.63 584.8 558.02 502.53 535.41 542.05 525.72 675.69 529.93 827.81 536.27 928.09 559.3 925.64 598.21 830.02 636.13 681.57 680.96 541.81 719.91 455.79 733.17 440.49 715.55 488.81 654.89 570.32 557.28 666.44 431.56 741.01 305.49 781.04 218.16 790.98 194.45 768.49 250.87 727 364.82 670.39 499.9 612.39 597.26 562.31 606.03 510.19 518.41 471.35 367.59 448.74 224.39 426.13 160.02 420.83 198.05 430.3 318.23 437.74 468.02 454.61 588.75 472.05 644.27 474.35 622.89 459.61 546.45 414.83 439.06 339.94 343.89 232.91 285.55 107.16 268.03 -3.97 296.06 -79.09 354.65 -87.33 436.41 -24.86 522.5 94.61 600.62 226.49 677.6 305.54 739.49 295.13 786.27 186.12 830.43 25.27 863.3 -112.94 885.91 -152.46 908.52 -70.19 919.8 87.52 918.28 236.61 914.14 309.41 893.38 278.11 855.58 170.62 816.64 33.29 767.78 -67.89 720.87 -98.49 697.13 -54.7 701.56 46.53 748.71 169.04 836.68 291.38 958.65 383.19 1089.59 437.56 1189.57 458.37 1231.23 452.47 1192.28 435.04 1088.12 405.28 951.2 381.38 839.74 370.63 810.44 359.1 879.39 363.85 1022.59 386.46Q1022.59 386.46 1022.59 386.46" opacity="0.75"></path><path d="M957.94 593.11C1124.87 616.21 1114.11 612.75 957.2 575.76 843.25 542.58 755.15 496.31 705.82 442.83 698.04 399.47 726.05 366.62 775.63 358.36 841.57 385.06 904.28 449.31 954.08 548.34 995.57 661.98 1018.09 772.63 1024.09 850.86 1021.06 873.22 1007.84 830.39 989.64 729.64 968.76 605.93 948.03 494.51 929.94 437.15 911.86 459.08 897.27 547.9 884.04 668.3 868.13 785.03 848.45 856.88 820.13 866.78 782.78 816.55 730.48 721.74 661.11 609.88 583.44 499.58 494.76 415.16 405.11 365.08 331.82 348.92 282.36 361.94 271.32 391.71 301.81 436.61 373.68 480.14 474.38 514.45 612.89 558.12 602.7 574.94 433.94 553.28 314.96 535.19 240.64 507.02 229.72 468.51 281.11 428.37 379.17 375.54 494.9 310.49 604.67 244.84 683.11 171.51 720.21 98.74 715.02 41.09 676.37 2.11 619.82 -5.43 550.51 20.93 488.24 83.91 441.55 175.37 397.22 307.69 406.86 319.73 437.36 154.94 461.44 27.57 483.82 -64.91 501.9 -86.84 519.99 -29.49 532.94 85.59 542.96 216.28 555.61 324.02 570.45 377.13 592.66 368.03 624.3 303.06 670.5 208.63 734.49 113.83 809.06 33.63 897.29 -9.17 990.31 -12.16 1070.57 19.8 1130.68 78.62 1154.72 149.85 1136.47 231.21 1074.26 307.27 977.76 371.79 875.29 432.72 787.51 480.43 743.08 516.21 760.96 549.71 838.91 575.02 957.87 593.1Q957.94 593.11 957.94 593.11" opacity="0.88"></path><path d="M891.73 191.25C1066.87 218.38 1128.97 231.42 1058.17 250.75 901.67 294.64 744.21 383.71 644.55 525.87 606.68 672.45 619.32 785.79 642.18 784.95 678.95 665.13 690.35 481.95 663.22 371.55 636.09 432.86 573 603.86 489.2 750.11 419.33 797.68 364.35 721.26 366.65 588.12 430.76 438.16 559.44 328.84 696.05 266.08 746.97 226.21 673.87 201.9 498.73 174.77 334.26 147.64 295.69 120.26 386.86 113.11 551.84 128.85 702.97 195.83 788.85 310.23 809.5 407.81 783.97 455.45 754.25 387.99 713.05 221.86 700.43 39.86 727.57 -21.44 754.7 88.95 819.01 283.12 907.22 422.84 983.96 443.56 1051.83 359 1066.74 247.98 1016.43 141.38 894.07 94.65 748.97 97.78 677.69 125.47 727.26 164.12 891.73 191.25Q891.73 191.25 891.73 191.25" opacity="0.30"></path><path d="M826.94 446.8C950.58 464.88 1033.77 508.84 1058.48 569.8 1029.87 624.98 958.88 682.2 873.6 718.82 778.82 720.58 698.36 675.2 640.63 580.55 588.09 469.94 553.29 363.5 535.2 306.15 517.12 328.08 517.46 412.27 538.65 518.62 565.03 625.54 617.27 693.47 688.34 715.45 749.91 703.1 801.72 663.32 817.07 618.02 779.11 564.6 688.58 523.66 564.94 505.58 410.3 490.73 447.29 535.77 577.61 530.2 673.07 484.51 751.1 397.38 805.69 277.22 854.05 157.6 886.16 66.08 904.25 44.15 922.33 101.5 924.69 215.27 907.67 339.14 884.42 447.05 834.63 511.61 762.88 533.56 696.66 520.65 635.06 491.65 605.6 467.82 629.3 438.2 707.92 428.7 826.87 446.79Q826.94 446.8 826.94 446.8" opacity="0.17"></path></g></svg>