<svg xmlns="http://www.w3.org/2000/svg" viewBox="0 0 3465.333 2310.667" height="753.667" width="1130.333" xml:space="preserve"><path style="fill:transparent;fill-opacity:1;fill-rule:nonzero;stroke:none" d="M16300 5.96H0V10872.6h16300V5.96" transform="matrix(.21252 0 0 -.21252 0 2310.667)"/><path style="fill:#c1b1c8;fill-opacity:1;fill-rule:nonzero;stroke:none" d="M8773.09 9868.76c-130.83-52.88-115.14-187.97-192.39-345.16-113.33-230.6-26.32-361.27 92.11-350.83 118.44 10.44 164.55 165.65 281.88 206.91.37.12.73.25 1.09.38.36.14.72.28 1.09.42 115.62 45.84 252.23-41.07 348.47 28.76 96.24 69.82 76.18 225.5-160.62 325.21-161.42 67.96-238.21 180.22-371.63 134.31M8417.59 9847.49c110.64-73.15 162.11-190.28 114.94-261.61-47.16-71.33-175.09-69.84-285.73 3.31-110.65 73.15-162.11 190.28-114.94 261.61 47.15 71.33 175.08 69.85 285.73-3.31M9055.35 10085.9c-35.52-127.78 2.48-249.94 84.86-272.84 82.4-22.9 177.98 62.14 213.5 189.94 35.52 127.8-2.48 250-84.86 272.9-82.39 22.9-177.97-62.2-213.5-190M8607.73 10206.7c71.21-120.4 65.99-255.24-11.64-301.13-77.61-45.9-198.26 14.51-269.45 134.93-71.2 120.4-65.99 255.2 11.63 301.1 77.63 45.9 198.27-14.5 269.46-134.9M8676.2 10232.3c25.26-137.6 117.63-235.93 206.33-219.6 88.69 16.2 140.13 141 114.87 278.6-25.25 137.5-117.62 235.9-206.33 219.6-88.69-16.3-140.12-141-114.87-278.6" transform="matrix(.13333 0 0 -.13333 0 2310.667)"/><path style="fill:#c1b1c8;fill-opacity:1;fill-rule:nonzero;stroke:none" d="M16236.9 10592.4c63.1 71.2 13.1 148 12.5 266.1-.8 173.3-92.5 226-160.8 184.2-68.5-41.9-49.7-149.4-108.1-209.6-.2-.2-.4-.3-.6-.5-.2-.2-.4-.4-.5-.6-56-62.4-164.6-50.9-201.7-122-37.2-71 21.6-159 194.5-148.1 117.9 7.4 197.9-37.3 264.7 30.5" transform="matrix(.19775 0 0 -.19775 0 2310.667)"/><path style="fill:#c1b1c8;fill-opacity:1;fill-rule:nonzero;stroke:none" d="M16123 10502.1c-87.1 10.7-152 64.9-145.1 121 7 56.1 83.1 92.9 170.1 82.1 87.1-10.7 152-64.9 145.1-121-7-56.1-83.1-92.9-170.1-82.1" transform="matrix(.2017 0 0 -.2017 0 2310.667)"/><path style="fill:#c1b1c8;fill-opacity:1;fill-rule:nonzero;stroke:none" d="M16282.9 10473.8c-17.1 88.6-77.2 151.6-134.4 140.6s-89.6-91.8-72.5-180.5c17-88.6 77.2-151.6 134.4-140.5 57.1 11 89.6 91.7 72.5 180.4" transform="matrix(.19591 0 0 -.19591 0 2310.667)"/><path style="fill:#c1b1c8;fill-opacity:1;fill-rule:nonzero;stroke:none" d="M16069 10203.6c-77.3 50.1-113.8 131.2-81.5 181.1 32.4 49.9 121.3 49.6 198.7-.6 77.3-50.1 113.8-131.2 81.4-181.1-32.3-49.9-121.2-49.6-198.6.6" transform="matrix(.2023 0 0 -.2023 0 2310.667)"/><path style="fill:#c1b1c8;fill-opacity:1;fill-rule:nonzero;stroke:none" d="M16237.7 10296.2c-56 74.7-140.4 106-188.6 69.9-48.2-36.1-41.8-125.9 14.2-200.6 56-74.7 140.3-106 188.5-69.9 48.2 36 41.9 125.9-14.1 200.6" transform="matrix(.19978 0 0 -.19978 0 2310.667)"/><path style="fill:#c1b1c8;fill-opacity:1;fill-rule:nonzero;stroke:none" d="M16045 5525.53c-90 15.56-127.5-64.14-223.6-124.28-141.2-88.24-137.9-189.83-69.1-224.52 68.7-34.68 147.1 34.99 225.7 17.65.3-.06.5-.11.8-.17.2-.04.4-.08.7-.13 79.3-14.24 124.8-108.69 201.6-103.13 76.8 5.58 118.9 98.11 22.6 233.82-65.6 92.5-69.5 180.49-158.7 200.76" transform="matrix(.20589 0 0 -.20589 0 2310.667)"/><path style="fill:#c1b1c8;fill-opacity:1;fill-rule:nonzero;stroke:none" d="M16263.1 5784.92c36.9-80.11 24.9-164.32-26.7-188.08-51.7-23.78-123.4 21.89-160.3 101.99-36.9 80.1-24.9 164.31 26.7 188.08 51.7 23.78 123.4-21.89 160.3-101.99" transform="matrix(.20056 0 0 -.20056 0 2310.667)"/><path style="fill:#c1b1c8;fill-opacity:1;fill-rule:nonzero;stroke:none" d="M16082.7 5483.31c-62.4-57.52-82.9-136.77-45.9-177.02 37.2-40.25 117.8-26.24 180.3 31.28 62.4 57.53 82.9 136.78 45.8 177.02-37.1 40.25-117.7 26.24-180.2-31.28" transform="matrix(.20834 0 0 -.20834 0 2310.667)"/><path style="fill:#c1b1c8;fill-opacity:1;fill-rule:nonzero;stroke:none" d="M16298 5850.02c-1.9-91.86-51.5-165.3-110.7-164.05-59.3 1.26-105.6 76.74-103.7 168.6 1.9 91.86 51.5 165.31 110.7 164.05 59.3-1.25 105.7-76.74 103.7-168.6" transform="matrix(.203 0 0 -.203 0 2310.667)"/><path style="fill:#c1b1c8;fill-opacity:1;fill-rule:nonzero;stroke:none" d="M16070.7 5742.55c-33-84.11-15.8-169.52 38.5-190.78 54.2-21.26 124.9 29.68 157.8 113.79 33 84.1 15.8 169.52-38.4 190.77-54.3 21.27-124.9-29.69-157.9-113.78" transform="matrix(.20647 0 0 -.20647 0 2310.667)"/><path style="fill:#c1b1c8;fill-opacity:1;fill-rule:nonzero;stroke:none" d="M15673 9345.61c65.8-100.7 176.2-65.26 320.5-103.91 211.6-56.71 306.5 37.64 278.2 134.98-28.3 97.34-165.7 110.26-219.6 201.6-.2.28-.4.56-.5.86-.2.26-.4.54-.6.81-57.3 89.15-7.3 217.76-81.5 286.74-74.3 68.96-201.2 26.48-245.5-188.06-30.2-146.24-111.4-229-51-333.02" transform="matrix(.15639 0 0 -.15639 0 2310.667)"/><path style="fill:#c1b1c8;fill-opacity:1;fill-rule:nonzero;stroke:none" d="M16008.1 9200.37c43.6 106.34 134.5 169.76 203.1 141.64 68.5-28.12 88.8-137.13 45.1-243.48-43.6-106.34-134.6-169.76-203.1-141.63-68.5 28.12-88.7 137.12-45.1 243.47" transform="matrix(.15386 0 0 -.15386 0 2310.667)"/><path style="fill:#c1b1c8;fill-opacity:1;fill-rule:nonzero;stroke:none" d="M16071.4 9933.11c117.3-8.94 217.1 45.11 222.8 120.79 5.8 75.6-84.6 144.2-202 153.1-117.3 9-217.1-45.1-222.8-120.7-5.8-75.6 84.6-144.23 202-153.19" transform="matrix(.1503 0 0 -.1503 0 2310.667)"/><path style="fill:#c1b1c8;fill-opacity:1;fill-rule:nonzero;stroke:none" d="M15983.8 9487.55c92.2 82.35 210 100.91 263.2 41.46 53-59.45 21.3-174.4-70.9-256.76-92.2-82.35-210-100.92-263.2-41.46-53.1 59.45-21.3 174.4 70.9 256.76" transform="matrix(.15085 0 0 -.15085 0 2310.667)"/><path style="fill:#c1b1c8;fill-opacity:1;fill-rule:nonzero;stroke:none" d="M16113.6 9640.5c116.2 45.93 186.4 143.86 156.8 218.74-29.6 74.89-147.8 98.38-263.9 52.45-116.2-45.91-186.4-143.85-156.8-218.74 29.6-74.89 147.8-98.36 263.9-52.45" transform="matrix(.14932 0 0 -.14932 0 2310.667)"/><path style="fill:#c1b1c8;fill-opacity:1;fill-rule:nonzero;stroke:none" d="M6927.87 12583.1c16.88 140.1-108.99 191.6-209.33 335.1-147.2 210.7-303.63 197.6-351.69 88.8-48.06-108.7 65.58-224.1 45.04-346.7-.06-.4-.12-.8-.19-1.2-.05-.3-.1-.7-.15-1.1-15.71-123.4-157.77-201.1-143.11-319.1 14.66-118 160.66-175.6 362.34-16.4 137.47 108.6 272.84 121.6 297.09 260.6M7080.93 12904.7c-117.49-61.6-244.91-50.1-284.6 25.7-39.68 75.7 23.4 187 140.9 248.6 117.49 61.5 244.91 50 284.6-25.7 39.67-75.8-23.4-187.1-140.9-248.6M6981.7 12231c-94.76 92.9-220.08 118.6-279.91 57.5-59.85-61.1-31.55-185.8 63.21-278.7 94.76-92.8 220.07-118.5 279.91-57.4 59.85 61.1 31.54 185.8-63.21 278.6M7303.63 12564.7c-139.81-4.2-255.36 65.5-258.05 155.6-2.71 90.1 108.44 166.6 248.27 170.8 139.82 4.2 255.36-65.5 258.06-155.6 2.71-90.2-108.45-166.6-248.28-170.8M7292.99 12492.4c-132.68 44.3-263.4 10.9-291.98-74.6-28.58-85.6 55.8-190.8 188.47-235.2 132.68-44.3 263.4-10.9 291.98 74.6 28.58 85.6-55.81 190.8-188.47 235.2M3679.07 7970.83c111.23-86.85 220.36-5.69 395.12 6.03 256.37 17.2 326.01 157.88 257.72 255.22-68.28 97.34-225.73 59.65-320.13 140.62-.31.25-.6.5-.88.75-.31.24-.62.49-.91.72-97.52 77.21-90.6 238.95-199.2 287.38-108.59 48.42-233.37-46.8-201.28-301.74 21.88-173.77-36.92-296.4 69.56-388.98M3875.29 7673.62c8.01 132.4 83.7 235.55 169.06 230.38 85.36-5.17 148.05-116.69 140.03-249.09-8-132.39-83.69-235.54-169.05-230.38-85.35 5.17-148.05 116.69-140.04 249.09M3349.86 8106.65c128.43 33.15 215.21 127.16 193.84 209.95-21.39 82.79-142.82 123.04-271.26 89.88-128.43-33.16-215.21-127.16-193.84-209.96 21.38-82.79 142.83-123.03 271.26-89.87M3469.14 7658.62c68.66 121.88 188.01 184.8 266.58 140.53 78.57-44.27 86.6-178.94 17.94-300.82-68.66-121.87-188.02-184.83-266.58-140.52-78.56 44.26-86.6 178.94-17.94 300.81M3412.73 7705.11c106.52 90.68 145.46 219.85 87.01 288.51-58.45 68.67-192.19 50.82-298.7-39.85-106.52-90.67-145.46-219.85-87.01-288.52 58.46-68.67 192.19-50.82 298.7 39.86" transform="matrix(.13333 0 0 -.13333 0 2310.667)"/><path style="fill:#c1b1c8;fill-opacity:1;fill-rule:nonzero;stroke:none" d="M16261.3 8951.9c38.7 132.25-74.3 202.06-147.8 356.43-108 226.49-260.9 238.99-324.6 141.95-63.7-97.06 27.2-226.37-12.2-341.25-.1-.36-.2-.72-.4-1.07-.1-.36-.2-.71-.3-1.08-35-116.33-184.3-168.35-189.1-284.36-4.8-116.02 126.6-194.95 346.4-73.94 149.9 82.48 282.3 73.31 328 203.32" transform="matrix(.13654 0 0 -.13654 0 2310.667)"/><path style="fill:#c1b1c8;fill-opacity:1;fill-rule:nonzero;stroke:none" d="M16102.7 9036.41c-120.3-39.56-238.6-8.72-264.1 68.88-25.5 77.61 51.4 172.6 171.7 212.17 120.4 39.56 238.7 8.73 264.2-68.89 25.5-77.6-51.4-172.59-171.8-212.16" transform="matrix(.13957 0 0 -.13957 0 2310.667)"/><path style="fill:#c1b1c8;fill-opacity:1;fill-rule:nonzero;stroke:none" d="M16216.5 8582.91c-76.2 104.37-192.5 149.14-259.7 100.03-67.3-49.12-60.1-173.54 16.2-277.9 76.2-104.36 192.5-149.13 259.7-100.02 67.3 49.13 60.1 173.54-16.2 277.89" transform="matrix(.13687 0 0 -.13687 0 2310.667)"/><path style="fill:#c1b1c8;fill-opacity:1;fill-rule:nonzero;stroke:none" d="M16031.4 8559.48c-130.5 17.75-227.1 100.35-215.7 184.53 11.5 84.17 126.6 138.02 257.2 120.29 130.5-17.75 227.1-100.37 215.7-184.54-11.5-84.17-126.6-138.02-257.2-120.28" transform="matrix(.14155 0 0 -.14155 0 2310.667)"/><path style="fill:#c1b1c8;fill-opacity:1;fill-rule:nonzero;stroke:none" d="M16120.2 8552.21c-117.2 62.15-244.7 51.26-284.7-24.29-40.1-75.56 22.4-187.21 139.7-249.34 117.1-62.15 244.7-51.29 284.7 24.28 40.1 75.56-22.5 187.2-139.7 249.35" transform="matrix(.14059 0 0 -.14059 0 2310.667)"/><path style="fill:#c1b1c8;fill-opacity:1;fill-rule:nonzero;stroke:none" d="M14153.2 8057.03c-62.7-126.41 38.7-217 85.4-385.82 68.4-247.67 220.2-287.6 301.8-201.13 81.6 86.45 13 233.11 73.4 341.88.1.33.3.68.5 1.01.2.35.4.69.5 1.04 56 111.05 215.9 136.8 241.5 252.91 25.6 116.12-92.8 219.2-336.1 136.48-165.8-56.37-297.7-23.43-367-146.37M13901.5 7805.05c131.3 18.78 247.6-34.62 259.7-119.27 12.1-84.65-84.5-168.49-215.8-187.27-131.4-18.78-247.6 34.61-259.7 119.26-12.1 84.65 84.5 168.5 215.8 187.28M14220 8406.85c58.3-119.14 167.9-185.26 244.6-147.66 76.9 37.59 91.8 164.65 33.5 283.79-58.3 119.13-167.8 185.24-244.6 147.64-76.8-37.58-91.8-164.64-33.5-283.77M13805.1 8199.88c133.2-42.74 218.9-147 191.3-232.87-27.6-85.86-157.9-120.82-291.1-78.07-133.2 42.74-218.8 147-191.2 232.87 27.5 85.87 157.8 120.83 291 78.07M13839.3 8264.49c110.3-86.1 244.6-98.28 300.1-27.2 55.5 71.07 11.2 198.48-99.1 284.58-110.2 86.1-244.6 98.28-300.1 27.2-55.5-71.07-11.1-198.48 99.1-284.58" transform="matrix(.13333 0 0 -.13333 0 2310.667)"/><path style="fill:#c1b1c8;fill-opacity:1;fill-rule:nonzero;stroke:none" d="M16255.1 3120.47c44.9 115.28-50.7 186.47-104.6 330.24-79 211.01-214.7 234.07-279.2 152.19-64.5-81.8 6.8-204.53-37.4-304.2-.2-.35-.3-.62-.5-.97 0-.26-.2-.61-.3-.96-40.3-101.26-177.9-136.24-191.2-239.59-13.3-103.36 98.1-184.19 304.1-93.02 140.4 62.07 258.2 43.57 309.1 156.31" transform="matrix(.1521 0 0 -.1521 0 2310.667)"/><path style="fill:#c1b1c8;fill-opacity:1;fill-rule:nonzero;stroke:none" d="M16113 3290.17c-110.9-26.02-214.4 10.81-231.1 82.23-16.9 71.42 59.4 150.49 170.2 176.58 110.9 26.01 214.3-10.73 231.2-82.24 16.7-71.42-59.5-150.48-170.3-176.57" transform="matrix(.15532 0 0 -.15532 0 2310.667)"/><path style="fill:#c1b1c8;fill-opacity:1;fill-rule:nonzero;stroke:none" d="M16239.7 2812.61c-60.2 99.6-161.1 148.83-225.2 109.95-64.3-38.78-67.5-151.02-7.2-250.62 60.2-99.59 161.1-148.82 225.2-110.04 64.3 38.88 67.5 151.11 7.2 250.71" transform="matrix(.15194 0 0 -.15194 0 2310.667)"/><path style="fill:#c1b1c8;fill-opacity:1;fill-rule:nonzero;stroke:none" d="M16043 2926.65c-115.8 26.15-196.1 107.8-179.3 182.49 16.9 74.69 124.5 113.99 240.2 87.93 115.9-26.14 196.1-107.88 179.3-182.49-16.8-74.69-124.4-114.07-240.2-87.93" transform="matrix(.15709 0 0 -.15709 0 2310.667)"/><path style="fill:#c1b1c8;fill-opacity:1;fill-rule:nonzero;stroke:none" d="M16152 2893.28c-100.5 65.04-216 65.21-257.9.43-41.9-64.79 5.6-170.05 106.1-235.1 100.6-65.04 216-65.21 258-.42 41.8 64.87-5.7 170.05-106.2 235.09" transform="matrix(.1558 0 0 -.1558 0 2310.667)"/><path style="fill:#c1b1c8;fill-opacity:1;fill-rule:nonzero;stroke:none" d="M10719.6 7666.75c87.9-110.43 213-57.02 385.6-86.45 253.3-43.17 353.9 77.34 310.2 187.94-43.6 110.61-205.5 110.74-278.4 211.53-.2.31-.4.62-.7.93-.2.31-.5.61-.7.91-76.8 97.85-32.2 253.51-126.5 325.97-94.3 72.45-237.9 9.01-266.2-246.37-19.4-174.07-105.2-279.57-23.3-394.46M10841 7331.91c38.7 126.87 136.4 209.48 218.2 184.52 81.8-24.97 116.7-148.05 77.9-274.93-38.7-126.9-136.4-209.5-218.1-184.5-81.8 25-116.7 148-78 274.91M10431.3 7875.72c132.6 2.24 238.9 73.36 237.5 158.86-1.5 85.5-110.1 153-242.8 150.76-132.6-2.23-238.9-73.36-237.5-158.86 1.4-85.49 110.1-152.99 242.8-150.76M10442.6 7412.23c95.2 102.46 225.9 135.75 292 74.35 66-61.39 42.4-194.18-52.8-296.68-95.3-102.5-226-135.7-292.1-74.4-66 61.4-42.4 194.3 52.9 296.73M10398.6 7470.61c124.7 63.29 192.8 179.78 152 260.2-40.8 80.42-175 94.32-299.8 31.04-124.7-63.3-192.8-179.79-152-260.22 40.8-80.42 175-94.31 299.8-31.02M15806.4 11827.5c42.3 134.6-72 208.3-144.2 367.9-106 234-262.2 249.9-329.4 151.9-67.2-98.1 23.3-232.4-19.4-349.2-.2-.3-.3-.7-.5-1.1-.1-.3-.2-.7-.3-1.1-38.1-118.3-192-168.6-199.3-287.3-7.3-118.7 125.7-202.1 353.2-82.7 155 81.5 290.5 69.4 339.9 201.6M16015.9 12115.4c-126.8-38.9-249.9-4.2-275 77.6-25.1 81.7 57.3 179.6 184.1 218.5 126.8 38.9 250 4.2 275.1-77.6 25.1-81.7-57.4-179.5-184.2-218.5M15794.6 11471.5c-76.1 108.7-194.5 157-264.6 107.9-70-49-65.1-176.8 11-285.5 76.1-108.6 194.5-157 264.6-107.9 70 49.1 65.1 176.9-11 285.5" transform="matrix(.13333 0 0 -.13333 0 2310.667)"/><path style="fill:#c1b1c8;fill-opacity:1;fill-rule:nonzero;stroke:none" d="M16013.5 11625c-136.8 21.4-236.6 110.2-222.9 198.4 13.8 88.3 135.9 142.5 272.7 121.1 136.9-21.3 236.7-110.2 222.9-198.4-13.7-88.2-135.8-142.4-272.7-121.1" transform="matrix(.13466 0 0 -.13466 0 2310.667)"/><path style="fill:#c1b1c8;fill-opacity:1;fill-rule:nonzero;stroke:none" d="M16114.5 11646.6c-122 67.8-256.4 59-300.1-19.7-43.7-78.6 19.8-197.4 141.8-265.2 122-67.8 256.4-59 300.1 19.7 43.7 78.6-19.8 197.4-141.8 265.2" transform="matrix(.13362 0 0 -.13362 0 2310.667)"/><path style="fill:#c1b1c8;fill-opacity:1;fill-rule:nonzero;stroke:none" d="M15769.7 6749.91c12.9-111.66 120-128.23 224.3-220.85 153.1-135.87 271.8-96.74 288.9-3.59 17.1 93.16-92.3 161.45-99.1 260.29-.1.3-.1.61-.1.91-.1.31-.1.61-.2.92-10.6 98.5 85 184.98 51.8 273.68-33.2 88.7-157 106.28-283.7-54.44-86.4-109.56-188.9-144.73-181.9-256.92" transform="matrix(.16739 0 0 -.16739 0 2310.667)"/><path style="fill:#c1b1c8;fill-opacity:1;fill-rule:nonzero;stroke:none" d="M16024.6 6601.74c81.2 70.84 184.1 85.84 229.7 33.49 45.7-52.34 16.9-152.22-64.3-223.08-81.2-70.84-184-85.84-229.7-33.5-45.7 52.35-16.9 152.23 64.3 223.09" transform="matrix(.1641 0 0 -.1641 0 2310.667)"/><path style="fill:#c1b1c8;fill-opacity:1;fill-rule:nonzero;stroke:none" d="M16031.3 7177.67c92.8-55.63 197-52.26 232.8 7.53 35.9 59.78-10.2 153.35-102.9 208.98-92.8 55.62-197 52.25-232.9-7.54-35.9-59.79 10.3-153.35 103-208.97" transform="matrix(.16354 0 0 -.16354 0 2310.667)"/><path style="fill:#c1b1c8;fill-opacity:1;fill-rule:nonzero;stroke:none" d="M16043.3 6940.33c111.5 30.23 217.7-3.53 237.2-75.4 19.5-71.88-55.1-154.65-166.6-184.88-111.4-30.24-217.6 3.52-237.1 75.4-19.5 71.87 55.1 154.65 166.5 184.88" transform="matrix(.16146 0 0 -.16146 0 2310.667)"/><path style="fill:#c1b1c8;fill-opacity:1;fill-rule:nonzero;stroke:none" d="M16072.8 7015.63c115.3-10.14 214.1 41.91 220.7 116.26 6.5 74.35-81.7 142.83-197 152.96-115.4 10.15-214.2-41.91-220.6-116.25-6.6-74.34 81.6-142.83 196.9-152.97" transform="matrix(.1611 0 0 -.1611 0 2310.667)"/><path style="fill:#c1b1c8;fill-opacity:1;fill-rule:nonzero;stroke:none" d="M3260.19 3126.8c30.85-137.6 166.69-144.2 309.19-246 209.05-149.4 352.14-84.9 361.14 33.7 9.01 118.5-136.6 189.3-158.19 311.8-.06.4-.12.8-.19 1.1-.08.4-.17.8-.26 1.2-26.35 121.5 81.65 242.1 28.44 348.5-53.2 106.3-210.07 111.9-347.05-105.5-93.36-148.2-216.63-205.6-193.08-344.8M3223.22 2772.6c90.22 97.3 214.16 129 276.86 70.8 62.68-58.2 40.38-184.1-49.85-281.4-90.2-97.2-214.16-128.9-276.84-70.7-62.7 58.1-40.37 184.1 49.83 281.3M3091.94 3440.7c120.31-55.8 247.02-38.3 283.05 39.3 36.03 77.5-32.3 185.7-152.6 241.6-120.3 55.9-247.02 38.3-283.04-39.3-36.02-77.5 32.3-185.7 152.59-241.6M2899.82 3018.8c130.4 50.6 262.57 23.5 295.2-60.6 32.64-84-46.63-193.2-177.03-243.8-130.4-50.7-262.57-23.6-295.21 60.5-32.62 84.1 46.63 193.3 177.04 243.9M2885.73 3090.5c139.86 2.5 251.94 77.6 250.33 167.8-1.6 90.1-116.28 161.2-256.14 158.7-139.86-2.5-251.95-77.6-250.34-167.7 1.6-90.2 116.29-161.3 256.15-158.8M15728.2 4446.2c6.2 141-123.2 182.8-234.1 318.3-162.7 198.9-317.7 174-357.4 61.9-39.7-112.1 82.4-218.4 71.2-342.3-.1-.4-.1-.8-.1-1.2-.1-.4-.1-.7-.1-1.1-6.3-124.3-142.1-212.4-118.5-329 23.5-116.5 173.5-162.9 362.5 11.1 128.9 118.6 262.9 141.9 276.5 282.3M15856.5 4778.4c-112.5-70.2-240.5-68.4-285.8 4.1-45.3 72.5 9.2 188.3 121.7 258.6 112.5 70.2 240.4 68.4 285.7-4.1 45.3-72.5-9.1-188.3-121.6-258.6M15808.5 4099.3c-101.5 85.3-228.4 101.5-283.4 36.1-55.1-65.5-17.4-187.8 84.1-273.1 101.5-85.4 228.5-101.6 283.5-36.1 55 65.4 17.4 187.7-84.2 273.1" transform="matrix(.13333 0 0 -.13333 0 2310.667)"/><path style="fill:#c1b1c8;fill-opacity:1;fill-rule:nonzero;stroke:none" d="M16056.6 4443.11c-138.7-14.76-258.8 45.86-268.3 135.19-9.5 89.44 95.2 173.89 233.9 188.65 138.7 14.65 258.9-45.87 268.3-135.3 9.5-89.34-95.2-173.79-233.9-188.54" transform="matrix(.13373 0 0 -.13373 0 2310.667)"/><path style="fill:#c1b1c8;fill-opacity:1;fill-rule:nonzero;stroke:none" d="M16072.7 4376.18c-135.5 34.14-263.1-8.99-285.1-96.34-22-87.26 70-185.7 205.4-219.84 135.5-34.04 263.1 9.09 285 96.34 22 87.36-69.9 185.69-205.3 219.84" transform="matrix(.13355 0 0 -.13355 0 2310.667)"/><path style="fill:#c1b1c8;fill-opacity:1;fill-rule:nonzero;stroke:none" d="M16246 2159.85c-58 73.31-140.9 38.21-255.2 58.08-167.6 29.13-234.5-50.46-205.8-123.76 28.7-73.37 135.9-73.77 183.9-140.72.2-.2.3-.4.5-.59.1-.2.3-.4.4-.6 50.7-64.96 20.9-167.93 83.1-216.14 62.3-48.21 157.5-6.49 176.8 162.57 13.2 115.22 70.3 184.88 16.3 261.16" transform="matrix(.20135 0 0 -.20135 0 2310.667)"/><path style="fill:#c1b1c8;fill-opacity:1;fill-rule:nonzero;stroke:none" d="M16273.9 2397.67c-26.1-84.46-91.4-139.32-145.8-122.52-54.5 16.8-77.5 98.92-51.4 183.45 26.1 84.45 91.4 139.31 145.8 122.52 54.5-16.87 77.5-98.93 51.4-183.45" transform="matrix(.20002 0 0 -.20002 0 2310.667)"/><path style="fill:#c1b1c8;fill-opacity:1;fill-rule:nonzero;stroke:none" d="M16141.7 1984.62c-86.2-1.17-155.5-47.21-154.8-102.81.8-55.61 71.3-99.76 157.5-98.59 86.3 1.24 155.6 47.21 154.9 102.81-.8 55.61-71.3 99.76-157.6 98.59" transform="matrix(.20503 0 0 -.20503 0 2310.667)"/><path style="fill:#c1b1c8;fill-opacity:1;fill-rule:nonzero;stroke:none" d="M16221.7 2298.28c-62.4-66.75-148-88.26-191.1-47.99-43 40.28-27.2 127.1 35.2 193.85 62.5 66.82 148.1 88.26 191.1 47.99 43.1-40.27 27.3-127.03-35.2-193.85" transform="matrix(.20394 0 0 -.20394 0 2310.667)"/><path style="fill:#c1b1c8;fill-opacity:1;fill-rule:nonzero;stroke:none" d="M16079.9 2236.33c-80.8-40.69-125.1-115.93-98.8-168.01 26.2-52.14 113-61.4 193.8-20.7 80.8 40.69 125.1 115.86 98.9 168.01-26.3 52.07-113 61.39-193.9 20.7" transform="matrix(.2061 0 0 -.2061 0 2310.667)"/><path style="fill:#c1b1c8;fill-opacity:1;fill-rule:nonzero;stroke:none" d="M15849.5 8299.01c6-96.71 97.4-115.88 183-200.39 125.6-123.97 229.6-95.71 248.5-16.3 19 79.43-72.1 143.22-73.4 228.62v1.59c-4.8 85.28 81.5 155.37 57 233.24-24.6 77.89-130.3 98.68-246.8-33.89-79.4-90.37-169.2-115.97-168.3-212.87" transform="matrix(.19415 0 0 -.19415 0 2310.667)"/><path style="fill:#c1b1c8;fill-opacity:1;fill-rule:nonzero;stroke:none" d="M16064.3 8204.92c72.9 57.16 162 65.35 198.9 18.3 36.8-47.05 7.5-131.52-65.5-188.68-73-57.15-162-65.33-198.8-18.29-36.9 47.05-7.6 131.52 65.4 188.67" transform="matrix(.1908 0 0 -.1908 0 2310.667)"/><path style="fill:#c1b1c8;fill-opacity:1;fill-rule:nonzero;stroke:none" d="M16066.7 8690.88c76.9-51.89 166.4-53.74 199.9-4.14 33.4 49.61-1.9 131.89-78.8 183.78-76.9 51.89-166.4 53.75-199.9 4.14-33.4-49.6 1.9-131.88 78.8-183.78" transform="matrix(.19056 0 0 -.19056 0 2310.667)"/><path style="fill:#c1b1c8;fill-opacity:1;fill-rule:nonzero;stroke:none" d="M16086.8 8526.31c96.9 20.83 186.3-12.91 199.7-75.38 13.5-62.47-54.2-129.98-151.1-150.81-96.8-20.83-186.3 12.93-199.7 75.38-13.5 62.46 54.2 129.99 151.1 150.81" transform="matrix(.1882 0 0 -.1882 0 2310.667)"/><path style="fill:#c1b1c8;fill-opacity:1;fill-rule:nonzero;stroke:none" d="M16097 8584.48c98.2-13.91 185.1 26.13 194.1 89.44 8.9 63.31-63.4 125.9-161.6 139.81-98.2 13.91-185.1-26.13-194.1-89.43-8.9-63.31 63.4-125.91 161.6-139.82" transform="matrix(.18806 0 0 -.18806 0 2310.667)"/><path style="fill:#c1b1c8;fill-opacity:1;fill-rule:nonzero;stroke:none" d="M10432.9 12036.5c-88.4 109.9-213.2 55.8-386 84.2-253.57 41.7-353.45-79.4-309.18-189.7 44.28-110.4 206.19-109.6 279.68-209.9.2-.4.4-.7.6-1 .3-.3.5-.6.8-.9 77.3-97.4 33.7-253.3 128.4-325.2 94.7-71.9 237.9-7.7 264.8 247.9 18.3 174.1 103.5 280.1 20.9 394.6M10309.7 12370.6c-38-127.1-135.2-210.3-217.2-185.8-81.9 24.5-117.51 147.4-79.5 274.5 38 127.1 135.2 210.2 217.1 185.7 82-24.4 117.6-147.3 79.6-274.4M10722.5 11829.1c-132.6-3-238.5-74.7-236.6-160.2 1.9-85.5 111-152.3 243.6-149.3s238.5 74.7 236.6 160.2c-1.9 85.5-111 152.3-243.6 149.3M10708.5 12292.6c-94.6-103-225.2-137.1-291.6-76.1-66.4 61-43.5 194 51.2 297 94.6 103 225.2 137.1 291.6 76 66.4-61 43.5-193.9-51.2-296.9M10752.9 12234.4c-124.4-64-191.8-180.9-150.6-261 41.3-80.2 175.6-93.3 300-29.4 124.4 64 191.7 180.9 150.5 261.1-41.3 80.2-175.6 93.3-299.9 29.3M11092.2 14585.7c-9.2-140.8 119.3-185.4 227.2-323.3 158.5-202.3 313.9-180.7 356-69.5 42.1 111.2-77.6 220.2-63.8 343.8.1.4.1.7.1 1.1.1.4.1.8.1 1.2 9 124 146.7 209.3 125.6 326.3-21 117-170 166.6-362.7-3.3-131.4-115.8-265.8-136.2-282.5-276.3M10956.8 14256.3c114 67.9 241.9 63.3 285.6-10.2 43.8-73.5-13.2-188-127.2-255.9-113.9-67.8-241.8-63.3-285.5 10.2-43.8 73.5 13.2 188 127.1 255.9M11019.3 14934.3c99.7-87.5 226.2-106.4 282.7-42.2 56.4 64.3 21.3 187.3-78.3 274.9-99.7 87.5-226.2 106.4-282.6 42.1-56.5-64.2-21.4-187.2 78.2-274.8M10716 14583.7c139.4 11.8 258.5-51.5 266.1-141.4 7.6-89.9-99.2-172.2-238.6-184-139.4-11.8-258.5 51.5-266.1 141.3-7.6 89.9 99.2 172.3 238.6 184.1M10722.7 14656.5c134.9-37.1 263.6 3.4 287.5 90.3 23.9 87-66.1 187.5-201 224.6-134.9 37-263.6-3.4-287.5-90.4-23.9-86.9 66.1-187.5 201-224.5" transform="matrix(.13333 0 0 -.13333 0 2310.667)"/><path style="fill:#c1b1c8;fill-opacity:1;fill-rule:nonzero;stroke:none" d="M16269.5 6807.29c30.5 96.18-51.1 149.07-102.5 263.23-75.5 167.47-187.1 179.04-235.3 109.02-48.2-70.03 16.3-166.13-14.4-249.58-.1-.26-.2-.52-.3-.77-.1-.26-.1-.53-.2-.79-27.5-84.59-137.6-120.3-142.9-205.14-5.4-84.84 89.6-144.69 252.4-59.6 111 58.01 207.8 49.19 243.2 143.63" transform="matrix(.1865 0 0 -.1865 0 2310.667)"/><path style="fill:#c1b1c8;fill-opacity:1;fill-rule:nonzero;stroke:none" d="M16152.7 6898.81c-89.3-27.2-175.9-2.63-193.4 54.9s40.6 126.22 129.9 153.42c89.1 27.21 175.7 2.63 193.3-54.89 17.5-57.53-40.6-126.22-129.8-153.43" transform="matrix(.18958 0 0 -.18958 0 2310.667)"/><path style="fill:#c1b1c8;fill-opacity:1;fill-rule:nonzero;stroke:none" d="M16242.5 6545.51c-54.2 77.7-138.7 112.36-188.8 77.42-50.1-34.93-46.8-126.24 7.4-203.92 54.2-77.7 138.8-112.37 188.8-77.43 50.1 34.94 46.8 126.23-7.4 203.93" transform="matrix(.1867 0 0 -.1867 0 2310.667)"/><path style="fill:#c1b1c8;fill-opacity:1;fill-rule:nonzero;stroke:none" d="M16098.2 6567.91c-96.1 15.2-166.2 77.79-156.4 139.8 9.8 62.02 95.7 99.97 191.9 84.78 96.3-15.2 166.3-77.79 156.5-139.8-9.8-62.02-95.7-99.98-192-84.78" transform="matrix(.19151 0 0 -.19151 0 2310.667)"/><path style="fill:#c1b1c8;fill-opacity:1;fill-rule:nonzero;stroke:none" d="M16170.1 6555.69c-85.5 47.73-179.7 41.74-210.5-13.38-30.8-55.13 13.6-138.51 99.1-186.23 85.5-47.73 179.8-41.75 210.5 13.38 30.8 55.12-13.6 138.5-99.1 186.23" transform="matrix(.19046 0 0 -.19046 0 2310.667)"/><path style="fill:#c1b1c8;fill-opacity:1;fill-rule:nonzero;stroke:none" d="M15629.1 6060.87c-65.9-110.43 19.8-199.9 50.1-356.62 44.6-229.79 179.6-276.81 260-204.1 80.3 72.71 28.3 210.84 90.8 305.33.3.27.5.64.7.91.1.27.3.54.5.91 58.8 96.86 205.8 108.88 237.3 212.57s-68.7 205.74-295.6 147.88c-154.6-39.45-272.2-.18-343.8-106.88" transform="matrix(.14634 0 0 -.14634 0 2310.667)"/><path style="fill:#c1b1c8;fill-opacity:1;fill-rule:nonzero;stroke:none" d="M16057.4 6106.47c125.9 7.99 232.1-51.26 237.4-132.39 5.2-81.13-92.7-153.51-218.6-161.6-125.8-8.08-232.2 51.17-237.3 132.4-5.2 81.13 92.6 153.51 218.5 161.59" transform="matrix(.14019 0 0 -.14019 0 2310.667)"/><path style="fill:#c1b1c8;fill-opacity:1;fill-rule:nonzero;stroke:none" d="M15987.9 6484.67c45.2-114.3 141.7-183.36 215.4-154.16 73.7 29.2 96.7 145.53 51.5 259.83-45.4 114.3-141.8 183.36-215.5 154.16-73.7-29.2-96.7-145.54-51.4-259.83" transform="matrix(.14383 0 0 -.14383 0 2310.667)"/><path style="fill:#c1b1c8;fill-opacity:1;fill-rule:nonzero;stroke:none" d="M16102.1 6531.3c124-50.75 197.9-156.64 165.3-236.59-32.8-79.86-159.8-103.51-283.7-52.76-123.9 50.75-198 156.64-165.2 236.59 32.6 79.85 159.7 103.5 283.6 52.76" transform="matrix(.13926 0 0 -.13926 0 2310.667)"/><path style="fill:#c1b1c8;fill-opacity:1;fill-rule:nonzero;stroke:none" d="M15961.1 6517.58c97.7-89.48 223.7-110.88 281.2-47.91 57.7 63.06 25.2 186.53-72.5 276.01-97.7 89.39-223.6 110.79-281.3 47.82-57.6-62.97-25.1-186.54 72.6-275.92" transform="matrix(.14081 0 0 -.14081 0 2310.667)"/><path style="fill:#c1b1c8;fill-opacity:1;fill-rule:nonzero;stroke:none" d="M1820.2 15820.8c-66.26-124.6 32.56-218.1 74.38-388.1 61.36-249.6 211.97-293.8 296.02-209.6 84.04 84.1 19.63 232.6 83.03 339.6.19.3.39.7.59 1 .17.3.37.7.55 1 59.15 109.4 219.65 130.6 248.53 246 28.88 115.3-86.52 221.7-332.05 146-167.35-51.7-298.31-15-371.05-135.9M1561.47 15576c131.79 15.1 246.49-41.6 256.19-126.6 9.69-84.9-89.28-166-221.06-181-131.79-15.1-246.48 41.6-256.18 126.5-9.71 85 89.27 166.1 221.05 181.1" transform="matrix(.13333 0 0 -.13333 0 2310.667)"/><path style="fill:#c1b1c8;fill-opacity:1;fill-rule:nonzero;stroke:none" d="M1875.47 15985.5c54.27-119.4 160.68-187.8 237.62-152.8 76.97 35 95.35 160.1 41.08 279.5-54.29 119.4-160.7 187.8-237.65 152.8-76.95-35-95.34-160.1-41.05-279.5" transform="matrix(.13486 0 0 -.13486 0 2310.667)"/><path style="fill:#c1b1c8;fill-opacity:1;fill-rule:nonzero;stroke:none" d="M1476.35 15973.4c131.93-46.5 214.56-153.1 184.58-238.2-29.98-85-161.23-116.3-293.16-69.8-131.93 46.5-214.57 153.2-184.58 238.3 29.98 85 161.23 116.2 293.16 69.7" transform="matrix(.13333 0 0 -.13333 0 2310.667)"/><path style="fill:#c1b1c8;fill-opacity:1;fill-rule:nonzero;stroke:none" d="M1503.71 15945.3c107.14-88.7 240.34-104.6 297.51-35.5 57.18 69 16.67 196.9-90.46 285.6-107.16 88.7-240.36 104.6-297.53 35.5-57.17-69-16.67-196.9 90.48-285.6" transform="matrix(.1341 0 0 -.1341 0 2310.667)"/><path style="fill:#c1b1c8;fill-opacity:1;fill-rule:nonzero;stroke:none" d="M1386.45 13087.3c96.05-103.4 216.67-40.5 391.07-56.7 255.86-23.6 346.91 104.2 294.93 211.2-51.99 106.9-213.43 94.6-293.81 189.6-.25.3-.51.5-.75.8l-.78.9c-84.05 91.7-51.57 250.3-151.12 315.3-99.55 65-237.85-9.2-246.57-266-5.94-175.1-83.44-286.8 7.03-395.1M1533.08 12762.7c28.89 129.5 119.98 219.4 203.43 200.7 83.46-18.6 127.69-138.6 98.8-268.1-28.9-129.5-119.98-219.3-203.44-200.7-83.46 18.6-127.69 138.7-98.79 268.1M1082.92 13273.6c132.07 12.4 232.65 91.4 224.67 176.6-7.99 85.1-121.52 144.1-253.58 131.7-132.069-12.4-232.655-91.5-224.67-176.6 7.984-85.1 121.515-144.1 253.58-131.7M1129.68 12812.3c87.11 109.5 214.92 152.7 285.49 96.5 70.56-56.1 57.14-190.4-29.97-299.8-87.1-109.5-214.92-152.7-285.48-96.6-70.56 56.2-57.15 190.5 29.96 299.9M1081.36 12867.2c119.53 72.6 178.47 194 131.64 271-46.84 77.1-181.71 80.7-301.254 8-119.527-72.6-178.469-194-131.633-271.1 46.836-77 181.707-80.6 301.247-7.9" transform="matrix(.13333 0 0 -.13333 0 2310.667)"/><path style="fill:#c1b1c8;fill-opacity:1;fill-rule:nonzero;stroke:none" d="M15794.7 10449.6c31.3-98.9 131.2-95 242-160.5 162.7-96 263.3-39.7 262.3 47.7-.9 87.4-112 130-135.7 218.3-.1.3-.2.5-.2.8-.1.3-.2.5-.2.8-27.1 87.3 44.3 182.5-1.4 257-45.8 74.5-161 68.6-247.4-99.4-59-114.4-145.6-164.4-119.4-264.7" transform="matrix(.1814 0 0 -.1814 0 2310.667)"/><path style="fill:#c1b1c8;fill-opacity:1;fill-rule:nonzero;stroke:none" d="M16048.2 10354.3c60.8 78.2 151 109.8 201.4 70.6 50.4-39.2 42-134.4-18.9-212.6-60.8-78.2-150.9-109.8-201.3-70.6-50.5 39.2-42 134.4 18.8 212.6" transform="matrix(.1785 0 0 -.1785 0 2310.667)"/><path style="fill:#c1b1c8;fill-opacity:1;fill-rule:nonzero;stroke:none" d="M16067.8 10952.5c94.1-34.1 188.2-12.6 210.2 48 22 60.7-36.4 137.5-130.5 171.7-94.1 34.1-188.2 12.6-210.2-48.1-22-60.6 36.4-137.5 130.5-171.6" transform="matrix(.1767 0 0 -.1767 0 2310.667)"/><path style="fill:#c1b1c8;fill-opacity:1;fill-rule:nonzero;stroke:none" d="M16042.6 10683.7c95.2 46.9 197 35.1 227.2-26.3 30.2-61.4-22.5-149.2-117.8-196.1-95.2-46.8-197-35-227.2 26.4-30.2 61.4 22.5 149.2 117.8 196" transform="matrix(.1757 0 0 -.1757 0 2310.667)"/><path style="fill:#c1b1c8;fill-opacity:1;fill-rule:nonzero;stroke:none" d="M16113.7 10794.9c106.1 11.2 186.3 75.7 179.1 144.1-7.1 68.4-99 114.8-205.2 103.7-106.1-11.2-186.3-75.7-179.2-144.1 7.2-68.4 99.1-114.9 205.3-103.7" transform="matrix(.17475 0 0 -.17475 0 2310.667)"/><path style="fill:#c1b1c8;fill-opacity:1;fill-rule:nonzero;stroke:none" d="M15591.1 15038.7c-83.3-106.7-5.4-211.3 5.9-379 16.5-245.8 151.4-312.6 244.7-247.1 93.5 65.5 57.2 216.5 134.9 307.1.2.3.5.5.7.8.3.3.4.6.7.9 74.1 93.5 229.2 86.9 275.6 191.1 46.4 104.1-44.9 223.8-289.5 193-166.6-21-284.3 35.3-373-66.8" transform="matrix(.13902 0 0 -.13902 0 2310.667)"/><path style="fill:#c1b1c8;fill-opacity:1;fill-rule:nonzero;stroke:none" d="M15958.8 15483.7c132.4-7.9 235.5-83.6 230.4-169-5.1-85.3-116.7-148-249.1-140.1-132.4 8-235.5 83.7-230.4 169.1 5.2 85.3 116.7 148 249.1 140" transform="matrix(.13333 0 0 -.13333 0 2310.667)"/><path style="fill:#c1b1c8;fill-opacity:1;fill-rule:nonzero;stroke:none" d="M15975.5 15602.7c32.3-125.1 123.9-209.7 204.6-188.9 80.7 20.9 119.9 139.3 87.5 264.4-32.3 125.2-123.9 209.7-204.6 188.9-80.6-20.8-119.9-139.2-87.5-264.4" transform="matrix(.1368 0 0 -.1368 0 2310.667)"/><path style="fill:#c1b1c8;fill-opacity:1;fill-rule:nonzero;stroke:none" d="M15943.7 15889.9c121.9-68.6 184.8-188 140.6-266.6-44.3-78.5-178.9-86.6-300.8-18-121.9 68.7-184.8 188-140.6 266.6 44.2 78.6 178.9 86.6 300.8 18" transform="matrix(.13333 0 0 -.13333 0 2310.667)"/><path style="fill:#c1b1c8;fill-opacity:1;fill-rule:nonzero;stroke:none" d="M15943.8 15900.1c90.5-106.2 219.3-145 287.7-86.7 68.5 58.3 50.6 191.6-39.8 297.8-90.4 106.2-219.2 145-287.6 86.7-68.5-58.3-50.7-191.6 39.7-297.8" transform="matrix(.13372 0 0 -.13372 0 2310.667)"/><path style="fill:#c1b1c8;fill-opacity:1;fill-rule:nonzero;stroke:none" d="M4376.61 1054.8c-115.73 80.7-220.35-6.2-394.21-27.3-255.09-31-317.06-175.199-243.65-268.699 73.42-93.5 228.61-47.399 327.25-123.199.3-.2.6-.5.91-.7.32-.203.63-.504.94-.699 101.53-71.801 103.31-233.703 214.35-276.301 111.04-42.5 230.52 59.297 184.77 312.2-31.18 172.3 20.95 297.898-90.36 384.698M4164.71 1341c-.89-132.7-70.92-239.7-156.43-239.1-85.52.5-154.12 108.5-153.23 241.2.89 132.6 70.92 239.7 156.42 239.1 85.51-.6 154.12-108.6 153.24-241.2M4712.66 936.801c-126.47-40-208.08-138.5-182.28-220 25.79-81.602 149.22-115.199 275.68-75.199 126.47 40 208.08 138.5 182.28 220.101-25.79 81.496-149.23 115.098-275.68 75.098M4569.46 1377.8c-62.01-125.4-177.8-194.6-258.64-154.7-80.83 40-96.09 174.1-34.08 299.5 62.01 125.3 177.81 194.6 258.65 154.6 80.83-40 96.09-174 34.07-299.4M4628.29 1334.4c-101.48-96.3-133.45-227.3-71.38-292.8 62.06-65.401 194.64-40.4 296.13 55.9 101.48 96.2 133.44 227.3 71.37 292.8-62.06 65.4-194.63 40.4-296.12-55.9M3911.41 12425.5c138.72-25.8 198.18 96.5 347.86 187.5 219.58 133.4 216.54 290.3 111.08 345.3-105.46 54.9-227.81-51.1-348.91-22.8-.39.1-.76.2-1.14.3-.37 0-.75.1-1.13.2-122.13 23.6-190.53 170.3-309.23 163.2-118.69-7.1-185.54-149.1-39.55-360.5 99.5-144.2 103.84-280.1 241.02-313.2M4222.52 12252.2c-53.92 121.2-34.29 247.6 43.85 282.4 78.12 34.7 185.16-35.3 239.08-156.5 53.91-121.2 34.28-247.7-43.85-282.4-78.12-34.8-185.16 35.3-239.08 156.5M3556.63 12394.3c98.7 88.6 132.39 212.1 75.26 275.7-57.13 63.6-183.45 43.4-282.14-45.3-98.7-88.6-132.4-212-75.26-275.6 57.13-63.7 183.45-43.4 282.14 45.2M3868.98 12051.7c4.77 139.8 81.69 250.6 171.82 247.6 90.13-3.1 159.33-118.9 154.56-258.7-4.75-139.8-81.68-250.7-171.81-247.6-90.12 3.1-159.33 118.9-154.57 258.7M3797.5 12066.9c52.73 129.6 27.77 262.2-55.76 296.2s-193.99-43.5-246.71-173c-52.74-129.6-27.76-262.2 55.76-296.2 83.53-34 193.99 43.5 246.71 173M1389.71 1566.6c-134.59-42.4-129.6-178.3-219-328.9-131.16-221-54.75-358.098 64.15-357.001 118.89 1.004 177.1 152.101 297.32 184.001.37.1.74.2 1.12.3.37.1.74.2 1.1.3 118.89 36.6 248.22-60.8 349.67 1.2 101.45 62 93.73 218.8-134.48 336.9-155.55 80.5-223.24 198.4-359.88 163.2M1033.64 1573.4c104.53-81.6 146.6-202.5 93.96-269.8-52.64-67.4-180.057-55.9-284.58 25.8-104.536 81.7-146.602 202.5-93.961 269.9 52.64 67.4 180.05 55.8 284.581-25.9M1688.23 1760.8c-45.49-124.6-17.24-249.4 63.08-278.7 80.32-29.3 182.31 47.9 227.81 172.5 45.48 124.6 17.24 249.4-63.08 278.7-80.33 29.3-182.32-47.9-227.81-172.5M1251.53 1916.5c61.48-125.6 45.65-259.6-35.35-299.3-81-39.6-196.51 30.1-257.981 155.8-61.484 125.6-45.656 259.6 35.352 299.3 80.999 39.6 196.499-30.1 257.979-155.8M1321.8 1936.6c14.33-139.1 98.65-244.4 188.36-235.2 89.71 9.2 150.82 129.5 136.49 268.7-14.32 139.1-98.65 244.4-188.35 235.2-89.71-9.2-150.82-129.5-136.5-268.7M14240.6 1318.6c-113.4 84.1-220.4.2-394.8-15.9-255.9-23.5-322-165.9-251.3-261.5 70.7-95.598 227.1-54.001 323.5-132.598.3-.301.6-.5.9-.7.3-.3.6-.5.9-.703 99.4-74.797 96.6-236.699 206.3-282.398 109.8-45.699 232.2 52.601 193.7 306.699-26.2 173.2 29.6 297.2-79.2 387.1M14037 1610.8c-4.7-132.5-77.8-237.5-163.2-234.5-85.5 3.1-150.9 113-146.2 245.5 4.7 132.6 77.8 237.6 163.2 234.6 85.5-3.1 151-113 146.2-245.6M14573.1 1191c-127.6-36.3-212-132.4-188.5-214.699 23.4-82.199 145.8-119.403 273.4-83.102 127.5 36.403 211.9 132.501 188.5 214.701-23.4 82.3-145.8 119.5-273.4 83.1M14442.7 1636c-65.6-123.6-183.4-189.5-263-147.2-79.6 42.3-91 176.8-25.4 300.3 65.6 123.6 183.3 189.4 263 147.1 79.6-42.3 91-176.7 25.4-300.2M14500.2 1590.9c-104.2-93.3-139.9-223.4-79.8-290.6 60.2-67.2 193.4-46 297.7 47.3 104.2 93.3 139.9 223.4 79.8 290.6-60.2 67.2-193.4 46-297.7-47.3" transform="matrix(.13333 0 0 -.13333 0 2310.667)"/><path style="fill:#c1b1c8;fill-opacity:1;fill-rule:nonzero;stroke:none" d="M16269.7 4923.71c-35.5 96.76-134.5 88.58-247.5 148.8-165.7 88.28-263.2 27.91-258.5-58.83 4.9-86.75 117.1-124.17 144.4-210.92.1-.22.2-.51.3-.8 0-.22.2-.51.3-.8 30.6-85.51-36.2-183.22 12.6-255.2 48.7-71.99 162.8-61.1 241.4 109.47 53.5 116.27 137.3 169.7 107 268.28" transform="matrix(.18245 0 0 -.18245 0 2310.667)"/><path style="fill:#c1b1c8;fill-opacity:1;fill-rule:nonzero;stroke:none" d="M16239.9 5176.59c-56.1-78.96-142.7-113.7-193.6-77.57-50.9 36.12-46.8 129.39 9.2 208.35 56.1 78.91 142.7 113.64 193.6 77.53 50.9-36.15 46.7-129.41-9.2-208.31" transform="matrix(.1827 0 0 -.1827 0 2310.667)"/><path style="fill:#c1b1c8;fill-opacity:1;fill-rule:nonzero;stroke:none" d="M16150.2 4634.43c-91 28.53-179.6 4.1-198-54.55-18.4-58.58 40.4-129.3 131.4-157.84 91-28.53 179.6-4.09 198 54.55 18.4 58.65-40.4 129.31-131.4 157.84" transform="matrix(.18551 0 0 -.18551 0 2310.667)"/><path style="fill:#c1b1c8;fill-opacity:1;fill-rule:nonzero;stroke:none" d="M16166.2 4928.33c-87.7-48.06-183.9-41.2-214.9 15.37s15 141.38 102.8 189.44c87.6 48.06 183.9 41.19 214.9-15.37 31-56.57-15.1-141.39-102.8-189.44" transform="matrix(.18644 0 0 -.18644 0 2310.667)"/><path style="fill:#c1b1c8;fill-opacity:1;fill-rule:nonzero;stroke:none" d="M16095.2 4852.3c-98.5-14.72-170.5-78.09-161-141.54 9.5-63.37 96.9-102.92 195.3-88.12 98.5 14.72 170.5 78.09 161 141.47-9.5 63.44-97 102.92-195.3 88.19" transform="matrix(.18746 0 0 -.18746 0 2310.667)"/><path style="fill:#c1b1c8;fill-opacity:1;fill-rule:nonzero;stroke:none" d="M5032.56 15604.2c63.78-125.9 197.06-98.8 360.23-162.5 239.38-93.3 362.2 4.4 341.75 121.5-20.44 117.2-178.98 150-230.05 263.4-.15.3-.31.7-.48 1-.16.4-.34.7-.5 1.1-55.47 111.3 19.53 254.8-58.2 344.7-77.72 90-231.15 56.9-310.43-187.6-54.03-166.6-159.38-252.6-102.32-381.6M5083.89 15251.8c63.5 116.4 175.86 177.6 250.92 136.7 75.07-41 84.45-168.6 20.93-285-63.51-116.5-175.86-177.7-250.93-136.7-75.07 40.9-84.44 168.5-20.92 285M4792.26 15867c130.35-24.6 248.85 23.7 264.68 107.7 15.83 84-77 172.1-207.35 196.6-130.35 24.6-248.86-23.6-264.69-107.7-15.83-84 77-172 207.36-196.6M4709.85 15410.8c113.95 81.1 248.72 87.3 301.03 13.9 52.32-73.5 2.36-198.8-111.58-279.9-113.95-81.2-248.72-87.4-301.03-14-52.31 73.5-2.36 198.8 111.58 280M4678.54 15476.8c134.96 36.8 225.11 137.2 201.37 224.2-23.74 87-152.38 127.7-287.33 90.9-134.95-36.9-225.11-137.2-201.36-224.2 23.73-87 152.37-127.7 287.32-90.9M8101.54 14269s-114.61-47-206.17 7c-114.64 67.6-137.47 196.1-84.16 289.1 52.69 91.8 167.25 130.7 253.06 151.8 116.64 28.8 268.94 36.1 352.06 31.3 37.36-74.3 91.22-217 111.13-335.5 14.65-87.1 24.51-207.7-38.88-292.6-64.12-85.8-191.09-115.9-298.68-37.6-85.95 62.6-88.36 186.5-88.36 186.5M10454.6 1482s-73.9 99.4-44.2 201.5c37.2 127.8 156 181.7 259.2 153 102.1-28.3 168-129.7 209.8-207.6 56.7-105.9 101.4-251.7 117.4-333.4-62.9-54.6-187.8-142.1-297.6-190.6-80.9-35.8-195.3-75.2-293.1-34.7-99.1 40.9-159.6 156.5-110.3 280.1 39.3 98.7 158.8 131.7 158.8 131.7M8154.23 3516.5s37.2-118.2-24.33-204.9c-77.03-108.5-206.94-120.5-295.11-59.5-87.11 60.2-116.19 177.6-130.08 264.9-18.89 118.6-13.3 271-1.6 353.4 77.25 31 223.93 72.7 343.66 82.6 88.08 7.3 209.06 7 288.27-63.3 80.17-71.1 99.46-200.2 12.37-300.8-69.57-80.4-193.18-72.4-193.18-72.4" transform="matrix(.13333 0 0 -.13333 0 2310.667)"/><path style="fill:#c1b1c8;fill-opacity:1;fill-rule:nonzero;stroke:none" d="M15849.2 4694.19s-66 75.96-48.3 160.45c22.2 105.85 115.1 156.87 200.5 140.13 84.5-16.65 144.2-94.64 182.8-155.16 52.6-82.22 97.8-197.58 115.8-262.73-47.4-48.18-143.2-126.74-229.2-172.96-63.3-33.96-153.4-72.95-235.2-46.31-82.8 26.97-139 116.82-106.8 220 25.8 82.46 120.4 116.58 120.4 116.58" transform="matrix(.16412 0 0 -.16412 0 2310.667)"/><path style="fill:#c1b1c8;fill-opacity:1;fill-rule:nonzero;stroke:none" d="M12691.7 15891.4s-101.8 67.9-108 172.7c-7.9 131.1 84.6 220.7 190.1 228.3 104.4 7.6 199.3-64.8 264-123.3 87.9-79.6 177.9-200.3 219.8-271-40.2-71.6-127.3-194.4-213.3-276-63.3-60.1-156.6-134.7-260.9-129.6-105.7 5.1-200.4 92.4-195.6 223.7 3.8 104.9 103.9 175.2 103.9 175.2" transform="matrix(.13507 0 0 -.13507 0 2310.667)"/><path style="fill:#c1b1c8;fill-opacity:1;fill-rule:nonzero;stroke:none" d="M4837.23 5583.6s21.5 122 116.07 170.5c118.42 60.8 239.2 11.5 289.31-83.2 49.53-93.6 21.16-211.2-6.77-295.1-37.97-114-113.21-246.6-161.61-314.3-82.84 8.1-232.21 38.8-343 85.3-81.51 34.1-188.71 90.2-226.57 189.1-38.33 100.1 4.08 223.5 127.77 272.6 98.82 39.2 204.8-24.9 204.8-24.9M13249.9 5815.6s116.5 42 205.7-16c111.5-72.6 128.8-201.9 71.4-292.4-56.6-89.5-172.7-123.3-259.4-140.8-117.8-23.6-270.3-24.2-353.1-15.9-34.1 76-81.7 220.8-96.4 340.1-10.8 87.7-15.4 208.6 51.6 290.6 67.8 83 196 107.4 300 24.5 83.2-66.3 80.2-190.1 80.2-190.1" transform="matrix(.13333 0 0 -.13333 0 2310.667)"/><path style="fill:#c1b1c8;fill-opacity:1;fill-rule:nonzero;stroke:none" d="M16078.9 2831.71s17.5-90.2-35.1-148.96c-65.8-73.59-162.6-71.51-222.5-19.21-59.1 51.7-70.7 140.65-73.7 206.15-4 89.1 12.9 200.89 28.4 260.68 59.6 16.4 171.3 34.79 260.3 32.05 65.6-2 154.7-12.39 207.2-70.85 53.1-59.12 56.5-155.85-16.1-222.77-58-53.41-148.5-37.09-148.5-37.09" transform="matrix(.17974 0 0 -.17974 0 2310.667)"/><path style="fill:#c1b1c8;fill-opacity:1;fill-rule:nonzero;stroke:none" d="M16034.4 1186.57s76.1 45.73 146.8 17.41c88.6-35.48 118.8-124 91.1-195.61-27.3-70.814-104.3-110.811-162.8-135.109-79.5-33.115-186.6-54.764-246-60.496-34.6 48.669-88.3 143.859-115.2 225.645-19.9 60.21-39.9 144.5-4.3 211.52 36.1 67.81 122.8 102.93 207.6 59.14 67.6-34.98 82.8-122.5 82.8-122.5" transform="matrix(.18602 0 0 -.18602 0 2310.667)"/><path style="fill:#c1b1c8;fill-opacity:1;fill-rule:nonzero;stroke:none" d="M10574.3 4721.6s44.7 115.5 146.9 144.8c127.9 36.7 236.9-35 267.7-137.6 30.5-101.5-20.1-211.3-63.7-288.2-59.3-104.5-158.8-220.1-219.4-277.1-79.7 24-220.3 82.9-320 150-73.4 49.3-167.7 125-185.7 229.4-18.3 105.6 47.2 218.4 178.1 242.7 104.5 19.4 196.1-64 196.1-64M5568.51 2921.3s-62.44 107-21.63 205.2c51.1 122.9 175.14 163.3 274.6 123.4 98.3-39.5 152.63-147.5 185.5-229.6 44.67-111.5 72.96-261.4 79.79-344.3-68.49-47.3-202.3-120.4-316.88-156.6-84.28-26.6-202.33-53.1-295.13-2-93.93 51.6-141.29 173.2-78.64 290.6 50.05 93.8 172.39 113.3 172.39 113.3M13873.1 13425.6s119.7 32.2 203.7-32.9c105.2-81.6 111.7-211.9 47.1-297.4-63.8-84.5-182.4-108.6-270.2-118.8-119.3-13.9-271.3-1.9-353.2 13.2-27.7 78.5-63.1 226.8-68 346.9-3.5 88.3 1.9 209.1 75.4 285.3 74.4 77.1 204.2 91 301.1-.3 77.3-72.9 64.1-196 64.1-196" transform="matrix(.13333 0 0 -.13333 0 2310.667)"/><path style="fill:#c1b1c8;fill-opacity:1;fill-rule:nonzero;stroke:none" d="M8617.72 16177.8s64.62 102.3 168.06 111.1c129.54 11.1 220.44-78.2 230.64-182.4 10.09-102.9-59.11-198.7-115.41-264.1-76.53-89-193.66-181-262.48-224.2-71.86 38-195.5 121-278.41 204.1-61 61-137.12 151.4-134.71 254.8 2.44 104.7 86.47 200.5 216.44 199.1 103.85-1.2 175.87-98.4 175.87-98.4" transform="matrix(.13651 0 0 -.13651 0 2310.667)"/><path style="fill:#c1b1c8;fill-opacity:1;fill-rule:nonzero;stroke:none" d="M12866.6 10311.1s84.7-90.4 66.8-195.2c-22.3-131.16-134.2-198.26-240.1-181.55-104.6 16.5-181.7 109.75-232 182.35-68.5 98.7-129.5 238.5-154.7 317.8 56.2 61.4 170.3 162.6 274 223.4 76.2 44.7 185.3 96.9 287.2 67.9 103-29.4 176.4-137.3 141.5-265.7-27.9-102.7-142.7-149-142.7-149M12693.2 3012.6s-86.1 89.1-69.7 194.1c20.4 131.6 131.3 200.3 237.4 185.2 104.8-15 183.3-107.1 234.7-178.9 69.9-97.8 133-236.6 159.3-315.5-55.3-62.3-167.9-165.1-270.6-227.4-75.5-45.9-183.9-99.6-286.2-72.1-103.5 27.8-178.4 134.6-145.4 263.6 26.3 103 140.5 151 140.5 151" transform="matrix(.13333 0 0 -.13333 0 2310.667)"/><path style="fill:#c1b1c8;fill-opacity:1;fill-rule:nonzero;stroke:none" d="M16166.1 8735.58s88.1-37.1 108.4-116.55c25.5-99.51-32.4-181.92-112.2-203.37-78.9-21.21-162.5 20.29-220.8 55.68-79.2 48.1-166.1 127.45-208.7 175.46 20.2 60.92 68.9 168.03 122.9 243.41 39.7 55.45 100.3 126.49 181.1 138.01 81.9 11.68 167.4-41.39 183.2-142.85 12.6-81.06-53.9-149.79-53.9-149.79" transform="matrix(.17281 0 0 -.17281 0 2310.667)"/><path style="fill:#c1b1c8;fill-opacity:1;fill-rule:nonzero;stroke:none" d="M15978.3 1584.65s109.2 42.47 194.9-10.13c107.3-65.85 126.8-187.71 74.9-274.85-51.4-86-160.4-120.81-242-139.45-110.8-25.26-254.9-29.62-333.5-23.75-34.1 70.96-82.7 206.82-99.6 319.22-12.4 82.69-19.7 196.88 41.6 276.17 62.1 80.13 182.7 106.44 283.2 30.56 80.3-60.65 80.5-177.77 80.5-177.77" transform="matrix(.14093 0 0 -.14093 0 2310.667)"/><path style="fill:#c1b1c8;fill-opacity:1;fill-rule:nonzero;stroke:none" d="M6428.02 7852.47s-123.43-10.55-194.63 68.39c-89.15 98.85-72.51 228.24 6.18 301 77.76 71.9 198.69 74.67 286.9 69.21 119.92-7.43 267.42-46.1 345.3-75.48 13.41-82.15 22.11-234.39 5.65-353.4-12.1-87.55-38.76-205.55-124.63-267.53-86.87-62.76-217.02-53.44-296.25 53.48-63.3 85.43-28.52 204.33-28.52 204.33" transform="matrix(.13333 0 0 -.13333 0 2310.667)"/><path style="fill:#c1b1c8;fill-opacity:1;fill-rule:nonzero;stroke:none" d="M16125.9 12950.6s56.7-81.9 30.1-163.1c-33.3-101.8-130.3-141.9-212.5-116.1-81.3 25.5-131.6 108.8-163.1 172.5-42.8 86.7-74.8 205.1-85.5 271.2 52.1 42.2 154.8 109.2 244.4 145.3 66 26.6 159 55.2 236.6 20 78.6-35.5 124.1-130.1 81.1-228.1-34.2-78.4-131.1-101.7-131.1-101.7" transform="matrix(.16575 0 0 -.16575 0 2310.667)"/><path style="fill:#c1b1c8;fill-opacity:1;fill-rule:nonzero;stroke:none" d="M1335.4 4657.3s-92.98 81.8-85.2 187.9c9.75 132.7 114.72 210.2 221.69 203.6 105.72-6.4 191.35-91.8 248.41-159.3 77.56-91.8 151.63-225.1 184.27-301.6-50.08-66.5-154.02-178.1-251.36-248.5-71.61-51.8-175.29-114.2-279.44-95-105.4 19.4-188.67 119.8-166.24 251 17.94 104.8 127.87 161.9 127.87 161.9" transform="matrix(.13333 0 0 -.13333 0 2310.667)"/><path style="fill:#c1b1c8;fill-opacity:1;fill-rule:nonzero;stroke:none" d="M16183.6 756.265s74.9-29.801 93.3-96.493c23.1-83.481-24.3-153.882-91.2-173.336-66.2-19.194-137.4 14.444-187.1 43.269-67.7 39.299-142.2 104.691-178.9 144.511 16.1 51.664 55.4 142.82 99.6 207.236 32.5 47.434 82.4 108.335 150.4 119.398 68.8 11.19 141.9-32.144 156.8-117.38 11.9-68.19-42.9-127.205-42.9-127.205" transform="matrix(.20492 0 0 -.20492 0 2310.667)"/><path style="fill:#c1b1c8;fill-opacity:1;fill-rule:nonzero;stroke:none" d="M15972.5 8002.07s-79.2 9.54-113.7 68.65c-43.3 74.04-15.8 153.45 43.3 189 58.5 35.14 135.2 21.03 190.1 6.01 74.6-20.41 162.5-64.15 207.8-92.9-2.3-53.57-16.8-150.71-42.8-223.59-19.1-53.62-51.4-124.53-113.7-152.35-63-28.18-143.8-5.23-179.8 72.59-28.7 62.18 8.8 132.59 8.8 132.59" transform="matrix(.207 0 0 -.207 0 2310.667)"/><path style="fill:#c1b1c8;fill-opacity:1;fill-rule:nonzero;stroke:none" d="M15924.4 3622.51s-63.1 51.55-60.6 121.37c3.2 87.45 70.3 140.9 140.7 139.25 69.7-1.64 128-55.75 167.1-98.68 53.2-58.38 105.1-144.18 128.4-193.69-31.2-44.91-96.8-120.71-159.1-169.36-45.8-35.77-112.4-79.3-181.3-69.24-69.7 10.2-126.9 74.17-115.3 160.89 9.2 69.29 80.1 109.46 80.1 109.46" transform="matrix(.2028 0 0 -.2028 0 2310.667)"/><path style="fill:#c1b1c8;fill-opacity:1;fill-rule:nonzero;stroke:none" d="M1602.92 10263.2s8.64 123.6 97.62 181.7c111.43 72.8 236.71 36.4 296.43-52.6 59.04-87.9 43.1-207.8 24.08-294.1-25.86-117.38-86.84-257.13-127.9-329.54-83.24-.55-235 14.36-350.03 48.99-84.64 25.47-197.1 70.05-245.09 164.45-48.57 95.5-19.27 222.7 98.61 284.4 94.18 49.4 206.28-3.3 206.28-3.3M5268.27 10313.8s-85.82 89.3-69.23 194.3c20.79 131.5 131.87 199.9 237.92 184.5 104.81-15.3 183.02-107.5 234.24-179.6 69.63-97.9 132.34-236.9 158.46-315.9-55.44-62.1-168.33-164.6-271.21-226.64-75.68-45.65-184.19-99.12-286.38-71.35-103.43 28.1-178.03 135.19-144.73 263.99 26.62 102.9 140.93 150.7 140.93 150.7M8276.47 6048.6s45.25-115.3-10.17-206c-69.39-113.6-198.17-134.5-290.3-79.7-91.07 54-128.15 169.2-148.01 255.3-26.99 117.1-31.91 269.5-25.9 352.5 74.95 36.2 218.41 87.9 337.18 106 87.37 13.3 208.07 21.3 291.94-43.4 84.87-65.4 112.99-192.8 33.03-299.2-63.89-85-187.77-85.5-187.77-85.5" transform="matrix(.13333 0 0 -.13333 0 2310.667)"/><path style="fill:#c1b1c8;fill-opacity:1;fill-rule:nonzero;stroke:none" d="M16090.8 1025.6s40.8-91.506-.6-166.913c-51.9-94.341-155.2-116.022-231.7-75.245-75.6 40.372-109.8 132.043-129.2 200.898-26.1 93.61-35.7 216.59-33.9 283.91 59.2 32.12 173.2 79.21 268.5 98.22 70.2 14 167.4 25 237.6-24.11 71-49.76 98.5-151.7 37.8-240.62-48.4-71.12-148.5-76.14-148.5-76.14" transform="matrix(.1648 0 0 -.1648 0 2310.667)"/><path style="fill:#c1b1c8;fill-opacity:1;fill-rule:nonzero;stroke:none" d="M7642.17 1024.4s-103.5-67.998-203.7-32.502C7313 1036.3 7266 1158 7300.53 1259.5c34.12 100.2 139.12 160.3 219.28 197.5 108.98 50.6 257.08 86.8 339.57 98.1 50.91-65.9 131.09-195.5 173.31-308 31.06-82.8 63.83-199.2 17.86-294.6-46.51-96.598-165.37-150.398-285.97-94.098-96.35 44.899-122.41 165.998-122.41 165.998M1427.11 7321.9s114.01 48.45 206.24-4.4c115.49-66.2 139.95-194.3 87.81-288-51.52-92.5-165.57-132.8-251.11-155.1-116.27-30.2-268.48-39.4-351.63-35.7-38.31 73.9-93.97 215.9-115.38 334.1-15.739 87-27.134 207.4 35.17 293.03 63.04 86.66 189.62 118.32 298.19 41.38 86.74-61.5 90.71-185.31 90.71-185.31" transform="matrix(.13333 0 0 -.13333 0 2310.667)"/><path style="fill:#c1b1c8;fill-opacity:1;fill-rule:nonzero;stroke:none" d="M16040.4 11920.3s105.6 20 174-41.8c85.6-77.4 82.7-190.5 21.2-260.2-60.7-68.8-164.8-81.9-241.4-85-104-4.2-234.6 16.2-304.4 34.6-18.8 69.7-39.7 200.2-36.1 304.3 2.8 76.6 15.3 180.7 83.9 241.8 69.4 61.7 182.5 65.2 260.2-20 62.1-68.1 42.6-173.7 42.6-173.7" transform="matrix(.1538 0 0 -.1538 0 2310.667)"/></svg>