<?xml version="1.0" encoding="UTF-8" standalone="no"?>
<svg
   xmlns:dc="http://purl.org/dc/elements/1.1/"
   xmlns:cc="http://creativecommons.org/ns#"
   xmlns:rdf="http://www.w3.org/1999/02/22-rdf-syntax-ns#"
   xmlns:svg="http://www.w3.org/2000/svg"
   xmlns="http://www.w3.org/2000/svg"
   viewBox="0 0 133.34666 133.34666"
   height="133.34666"
   width="133.34666"
   xml:space="preserve"
   id="svg2"
   version="1.1"><metadata
     id="metadata8"><rdf:RDF><cc:Work
         rdf:about=""><dc:format>image/svg+xml</dc:format><dc:type
           rdf:resource="http://purl.org/dc/dcmitype/StillImage" /></cc:Work></rdf:RDF></metadata><defs
     id="defs6" /><g
     transform="matrix(1.3333333,0,0,-1.3333333,0,133.34667)"
     id="g10"><g
       transform="scale(0.1)"
       id="g12"><path
         id="path14"
         style="fill:transparent;fill-opacity:1;fill-rule:nonzero;stroke:none"
         d="M 1000.12,0 H 0 V 1000.12 H 1000.12 V 0" /><path
         id="path16"
         style="fill:#C1B1C8;fill-opacity:1;fill-rule:nonzero;stroke:none"
         d="m 804.348,820.402 c 0,-0.062 -0.09,-0.027 -0.09,-0.027 0,0 -0.098,-0.094 -0.156,-0.094 0.058,0.028 0.156,0.094 0.246,0.121 z m 127.007,29.821 c -0.183,0.468 -0.371,0.804 -0.625,1.14 8.848,3.961 14.004,13.266 11.719,22.903 -2.508,10.843 -13.379,17.586 -24.312,14.863 -23.125,-5.684 -19.043,-30.16 -17.746,-32.074 l -73.86,-17.742 c 0.403,2.32 -9.363,25.5 -32.293,20.054 -10.84,-2.594 -17.453,-13.465 -14.929,-24.441 2.539,-10.567 13.359,-17.09 23.984,-14.801 -10.625,-2.812 -17.055,-13.566 -14.594,-24.18 2.656,-10.757 13.547,-17.496 24.36,-14.836 10.82,2.536 15.945,10.325 20.703,25.664 l 72.808,17.551 c 8.782,-9.265 19.602,-16.062 30.442,-13.441 10.793,2.625 17.429,13.441 14.89,24.418 -2.351,9.453 -11.16,15.476 -20.547,14.922" /><path
         id="path18"
         style="fill:#C1B1C8;fill-opacity:1;fill-rule:nonzero;stroke:none"
         d="m 488.918,352.512 c -0.031,0.031 -0.063,0.09 -0.063,0.09 0,0 -0.066,0.097 -0.066,0.156 0,-0.059 0.066,-0.156 0.129,-0.246 z M 532.02,229.387 c 0.468,0.254 0.746,0.441 1.085,0.754 4.856,-8.379 14.649,-12.551 23.985,-9.239 10.539,3.641 16.133,15.164 12.234,25.762 -8.094,22.383 -32.011,15.731 -33.777,14.219 l -25.457,71.57 c 2.312,-0.156 24.312,12.024 16.492,34.25 -3.73,10.527 -15.234,15.938 -25.859,12.235 -10.235,-3.622 -15.606,-15.079 -12.207,-25.411 -3.868,10.293 -15.235,15.547 -25.555,11.965 -10.441,-3.801 -15.988,-15.332 -12.207,-25.773 3.68,-10.508 11.98,-14.774 27.723,-17.891 l 25.144,-70.555 c -8.277,-9.707 -13.875,-21.164 -10.105,-31.679 3.711,-10.442 15.175,-15.91 25.871,-12.207 9.121,3.34 14.187,12.734 12.633,22" /><path
         id="path20"
         style="fill:#C1B1C8;fill-opacity:1;fill-rule:nonzero;stroke:none"
         d="m 340,690.844 c -0.066,-0.031 -0.129,0.027 -0.129,0.027 -0.086,0.063 -0.125,0.156 -0.183,0.188 0.183,-0.094 0.183,-0.094 0.312,-0.215 z m 67.02,-111.778 c 0.375,0.215 0.656,0.551 0.988,0.899 6.406,-7.266 16.933,-9.344 25.285,-4.238 9.539,5.75 12.664,18.136 6.766,27.781 -12.332,20.211 -34.524,8.867 -35.879,7.078 l -39.492,64.859 c 2.316,0.407 21.472,16.754 9.296,36.907 -5.871,9.515 -18.23,12.543 -27.812,6.703 -9.395,-5.66 -12.363,-17.895 -6.836,-27.348 -5.859,9.266 -18.106,12.266 -27.402,6.453 -9.579,-5.683 -12.637,-18.137 -6.856,-27.562 5.867,-9.637 14.668,-12.055 30.801,-11.993 l 39.043,-64 c -6.211,-11.121 -9.434,-23.449 -3.633,-32.964 5.879,-9.559 18.203,-12.555 27.793,-6.774 8.313,5.156 11.406,15.262 7.938,24.199" /><path
         id="path22"
         style="fill:#C1B1C8;fill-opacity:1;fill-rule:nonzero;stroke:none"
         d="m 779.973,494.719 c -0.039,0.078 0.027,0.168 0.027,0.168 0.027,0.058 0.117,0.125 0.145,0.183 -0.055,-0.183 -0.055,-0.183 -0.172,-0.351 z M 677.246,414.535 c 0.242,-0.344 0.613,-0.558 0.977,-0.871 -6.426,-7.226 -7.188,-17.949 -1.075,-25.613 6.856,-8.77 19.563,-10.352 28.399,-3.332 18.547,14.699 4.582,35.344 2.629,36.496 l 59.519,47.117 c 0.711,-2.227 19.285,-19.246 37.793,-4.687 8.723,6.953 10.227,19.621 3.242,28.398 -6.765,8.617 -19.25,10.098 -28,3.43 8.508,6.98 9.954,19.465 3.071,27.992 -6.797,8.844 -19.571,10.32 -28.188,3.437 -8.867,-6.988 -10.175,-16.011 -8.133,-32.015 l -58.769,-46.582 c -11.777,4.793 -24.414,6.472 -33.164,-0.43 -8.738,-7.012 -10.203,-19.621 -3.301,-28.43 6.145,-7.605 16.524,-9.453 25,-4.91" /><path
         id="path24"
         style="fill:#C1B1C8;fill-opacity:1;fill-rule:nonzero;stroke:none"
         d="m 675.637,192.895 c -0.039,0.058 0.027,0.164 0.027,0.164 0.027,0.058 0.117,0.117 0.188,0.214 -0.098,-0.214 -0.098,-0.214 -0.215,-0.378 z M 565.129,106.613 c 0.269,-0.371 0.672,-0.586 1.043,-0.925 -6.895,-7.7935 -7.727,-19.3169 -1.145,-27.5591 7.383,-9.4648 21.047,-11.1328 30.539,-3.5859 19.954,15.8203 4.942,38.039 2.84,39.238 l 64.035,50.715 c 0.762,-2.383 20.735,-20.703 40.664,-5.07 9.356,7.512 11.004,21.133 3.489,30.558 -7.285,9.286 -20.727,10.887 -30.117,3.719 9.136,7.5 10.679,20.918 3.269,30.098 -7.297,9.523 -21.047,11.125 -30.312,3.711 -9.524,-7.52 -10.95,-17.246 -8.75,-34.453 l -63.235,-50.106 c -12.664,5.164 -26.265,6.953 -35.664,-0.461 -9.422,-7.547 -10.965,-21.101 -3.555,-30.594 6.614,-8.195 17.778,-10.168 26.899,-5.285" /><path
         id="path26"
         style="fill:#C1B1C8;fill-opacity:1;fill-rule:nonzero;stroke:none"
         d="m 433.008,922.336 c -0.086,-0.043 -0.086,-0.043 -0.117,-0.121 -0.059,0.105 -0.098,0.242 -0.157,0.308 0.059,-0.066 0.157,-0.136 0.274,-0.187 z m 93.113,-110.633 c 0.305,0.309 0.649,0.68 0.891,1.176 8.261,-6.801 20.156,-7.293 28.476,-0.188 9.453,7.993 10.559,22.168 2.559,31.567 -17.031,19.984 -39.395,3.711 -40.676,1.344 l -54.578,64.207 c 2.422,0.957 20.625,22.121 3.691,41.961 -7.976,9.394 -22.129,10.617 -31.496,2.503 -9.363,-7.859 -10.508,-21.707 -2.84,-31.074 -8.007,9.09 -21.816,10.215 -31.152,2.242 -9.426,-7.968 -10.535,-22.144 -2.5,-31.566 7.969,-9.395 18.106,-10.43 35.84,-7.574 l 53.711,-63.238 c -4.754,-13.274 -5.996,-27.301 1.973,-36.704 8.046,-9.453 22.187,-10.57 31.562,-2.593 8.281,7.105 9.68,18.793 4.539,27.937" /><path
         id="path28"
         style="fill:#C1B1C8;fill-opacity:1;fill-rule:nonzero;stroke:none"
         d="m 313.379,161.594 c -0.059,-0.098 -0.059,-0.098 -0.02,-0.184 -0.136,0.086 -0.214,0.145 -0.312,0.145 0.098,0 0.215,0 0.332,0.039 z m 142.812,-22.586 c 0.032,0.457 0.059,0.918 -0.097,1.472 10.722,0.247 20,7.708 21.633,18.516 1.921,12.238 -6.555,23.672 -18.762,25.527 -25.918,3.926 -32.195,-22.996 -31.582,-25.593 l -83.313,12.734 c 1.203,2.285 1.118,30.223 -24.695,34.121 -12.207,1.844 -23.672,-6.484 -25.43,-18.75 -1.914,-12.062 6.282,-23.281 18.203,-25.351 -11.992,1.64 -23.183,-6.555 -25,-18.731 -1.914,-12.168 6.543,-23.644 18.75,-25.461 12.188,-1.883 20.528,3.985 32.09,17.766 l 81.985,-12.61 c 5.125,-13.164 13.379,-24.5699 25.554,-26.4449 12.266,-1.8828 23.672,6.5549 25.559,18.7229 1.609,10.781 -5.012,20.554 -14.895,24.082" /><path
         id="path30"
         style="fill:#C1B1C8;fill-opacity:1;fill-rule:nonzero;stroke:none"
         d="m 812.527,599.645 c -0.086,-0.063 -0.086,-0.063 -0.117,-0.125 -0.066,0.125 -0.097,0.25 -0.152,0.312 0.055,-0.062 0.152,-0.121 0.269,-0.187 z m 93.118,-110.637 c 0.312,0.312 0.644,0.683 0.898,1.18 8.254,-6.797 20.145,-7.293 28.469,-0.184 9.453,7.976 10.562,22.187 2.554,31.582 -17.019,19.961 -39.402,3.711 -40.664,1.328 l -54.578,64.184 c 2.41,0.992 20.614,22.129 3.672,41.968 -7.961,9.395 -22.117,10.629 -31.484,2.532 -9.367,-7.879 -10.508,-21.727 -2.84,-31.086 -8.012,9.086 -21.817,10.199 -31.152,2.226 -9.426,-7.98 -10.54,-22.129 -2.5,-31.554 7.976,-9.395 18.101,-10.414 35.847,-7.575 l 53.699,-63.226 c -4.753,-13.289 -5.996,-27.313 1.985,-36.707 8.039,-9.465 22.187,-10.578 31.543,-2.598 8.293,7.11 9.687,18.789 4.551,27.93" /><path
         id="path32"
         style="fill:#C1B1C8;fill-opacity:1;fill-rule:nonzero;stroke:none"
         d="m 153.164,451.027 c -0.098,0 -0.098,0 -0.156,-0.058 -0.012,0.148 0.019,0.273 -0.012,0.332 0.031,-0.059 0.09,-0.145 0.168,-0.274 z M 188.965,310.91 c 0.437,0.156 0.871,0.344 1.301,0.695 4.507,-9.718 14.961,-15.343 25.593,-12.558 11.993,3.086 19.161,15.391 16.004,27.351 -6.609,25.372 -33.875,20.461 -36.035,18.887 l -21.258,81.516 c 2.598,-0.188 28.184,10.976 21.504,36.191 -3.086,11.922 -15.261,19.188 -27.258,15.977 -11.836,-3.028 -18.875,-15.02 -16.043,-26.789 -3.269,11.679 -15.234,18.664 -27.089,15.539 -11.961,-3.086 -19.121,-15.324 -15.965,-27.317 3.094,-11.933 11.785,-17.246 28.98,-22.402 l 20.91,-80.293 c -10.058,-9.883 -17.254,-22 -14.16,-33.926 3.145,-11.992 15.403,-19.16 27.266,-16.043 10.566,2.821 16.933,12.735 16.25,23.172" /><path
         id="path34"
         style="fill:#C1B1C8;fill-opacity:1;fill-rule:nonzero;stroke:none"
         d="m 219.375,844.895 c 0.027,0.031 -0.027,0.109 -0.059,0.152 0.086,0.016 0.274,0.078 0.34,0.183 -0.164,-0.156 -0.125,-0.292 -0.281,-0.335 z M 110.488,761.211 c 0.293,-0.309 0.684,-0.563 1.114,-0.871 -6.836,-7.481 -7.801,-18.785 -1.368,-27.012 7.149,-9.332 20.496,-10.996 29.844,-3.765 19.719,15.328 5.164,37.203 2.996,38.5 l 63.235,49.128 c 0.742,-2.398 20.117,-20.566 39.738,-5.332 9.207,7.258 10.906,20.614 3.711,29.852 -7.168,9.238 -20.278,10.801 -29.485,3.922 8.997,7.23 10.567,20.398 3.457,29.531 -7.226,9.254 -20.507,10.906 -29.753,3.734 -9.297,-7.214 -10.813,-16.871 -8.84,-33.773 l -62.188,-48.32 c -12.5,5.195 -25.6248,6.957 -34.9998,-0.246 -9.289,-7.231 -10.9844,-20.579 -3.6914,-29.852 6.3789,-8.16 17.3832,-10.012 26.2302,-5.496" /><path
         id="path36"
         style="fill:#C1B1C8;fill-opacity:1;fill-rule:nonzero;stroke:none"
         d="m 309.309,779.379 c -9.582,3.184 -15.579,10.848 -13.469,17.18 2.031,6.336 11.484,8.996 21.062,5.812 9.524,-3.183 15.578,-10.906 13.508,-17.211 -2.07,-6.34 -11.582,-8.875 -21.101,-5.781" /><path
         id="path38"
         style="fill:#C1B1C8;fill-opacity:1;fill-rule:nonzero;stroke:none"
         d="m 299.844,810.805 c -8.899,4.601 -13.653,13.199 -10.664,19.07 3.039,5.902 12.715,7.016 21.738,2.414 8.953,-4.605 13.711,-13.137 10.684,-19.039 -3.028,-5.996 -12.793,-7.016 -21.758,-2.445" /><path
         id="path40"
         style="fill:#C1B1C8;fill-opacity:1;fill-rule:nonzero;stroke:none"
         d="m 370.957,842.855 c -3.43,9.489 -11.211,15.329 -17.551,13.04 -6.218,-2.223 -8.504,-11.747 -5.125,-21.172 3.418,-9.516 11.336,-15.297 17.637,-13.035 6.25,2.285 8.535,11.832 5.039,21.167" /><path
         id="path42"
         style="fill:#C1B1C8;fill-opacity:1;fill-rule:nonzero;stroke:none"
         d="m 339.336,851.508 c -4.871,8.715 -13.535,13.258 -19.336,10.07 -5.812,-3.238 -6.641,-13.012 -1.824,-21.848 4.91,-8.742 13.562,-13.289 19.441,-10.074 5.867,3.246 6.602,12.981 1.719,21.852" /><path
         id="path44"
         style="fill:#C1B1C8;fill-opacity:1;fill-rule:nonzero;stroke:none"
         d="m 360.391,811.059 c -2.813,19.308 -25.743,15.847 -31.114,10.343 -5.261,-5.496 -4.707,-27.777 11.614,-30.902 -14.192,-9.699 -2.817,-27.5 4.57,-29.477 7.422,-2.105 25.711,6.18 23.367,22.532 12.735,-1.77 23.418,17.488 20.879,24.75 -2.519,7.133 -17.969,17.988 -29.316,2.754" /><path
         id="path46"
         style="fill:#C1B1C8;fill-opacity:1;fill-rule:nonzero;stroke:none"
         d="m 817.109,149.289 c 8.719,-3.426 13.965,-10.965 11.746,-16.707 -2.292,-5.852 -11.218,-7.707 -19.968,-4.309 -8.684,3.372 -13.938,10.879 -11.653,16.731 2.231,5.809 11.196,7.684 19.875,4.285" /><path
         id="path48"
         style="fill:#C1B1C8;fill-opacity:1;fill-rule:nonzero;stroke:none"
         d="m 824.277,119.523 c 8.164,-4.687 12.176,-12.878 8.993,-18.289 -3.18,-5.3434 -12.274,-5.8707 -20.34,-1.144 -8.059,4.758 -12.078,12.922 -8.965,18.301 3.125,5.41 12.285,5.968 20.312,1.132" /><path
         id="path50"
         style="fill:#C1B1C8;fill-opacity:1;fill-rule:nonzero;stroke:none"
         d="m 756.445,93.293 c 2.727,-8.9844 9.739,-14.8633 15.735,-13.0742 5.925,1.7968 8.59,10.5742 5.925,19.539 -2.812,9.0232 -9.851,14.8362 -15.82,13.0082 -5.93,-1.758 -8.523,-10.536 -5.84,-19.473" /><path
         id="path52"
         style="fill:#C1B1C8;fill-opacity:1;fill-rule:nonzero;stroke:none"
         d="m 785.488,83.7539 c 4.09,-8.4375 11.907,-13.1445 17.586,-10.3906 5.539,2.6562 6.797,11.6797 2.688,20.0859 -4.043,8.5078 -11.836,13.1958 -17.547,10.4418 -5.598,-2.715 -6.77,-11.7387 -2.727,-20.1371" /><path
         id="path54"
         style="fill:#C1B1C8;fill-opacity:1;fill-rule:nonzero;stroke:none"
         d="m 768.035,122.406 c 1.477,-18.144 23.11,-16.105 28.371,-11.242 5.254,4.816 5.867,25.578 -9.25,29.375 13.813,8.262 3.957,25.352 -2.742,27.695 -6.797,2.227 -24.297,-4.48 -22.773,-19.773 -11.836,2.227 -22.903,-15.078 -20.86,-21.973 2.032,-6.808 15.789,-17.707 27.254,-4.082" /><path
         id="path56"
         style="fill:#C1B1C8;fill-opacity:1;fill-rule:nonzero;stroke:none"
         d="m 697.48,552.297 c -6.523,-6.703 -15.515,-8.649 -19.929,-4.383 -4.516,4.356 -2.785,13.32 3.738,20.086 6.453,6.703 15.391,8.652 19.902,4.297 4.512,-4.297 2.786,-13.289 -3.711,-20" /><path
         id="path58"
         style="fill:#C1B1C8;fill-opacity:1;fill-rule:nonzero;stroke:none"
         d="m 667.266,557.184 c -7.493,-5.715 -16.575,-6.278 -20.34,-1.266 -3.703,5.004 -0.676,13.598 6.797,19.219 7.476,5.593 16.57,6.148 20.34,1.203 3.757,-4.969 0.773,-13.625 -6.797,-19.156" /><path
         id="path60"
         style="fill:#C1B1C8;fill-opacity:1;fill-rule:nonzero;stroke:none"
         d="m 669.238,629.867 c -9.367,0.961 -17.5,-3.242 -18.144,-9.453 -0.614,-6.184 6.426,-12.023 15.73,-13.008 9.426,-0.898 17.492,3.364 18.11,9.574 0.652,6.153 -6.426,11.93 -15.696,12.887" /><path
         id="path62"
         style="fill:#C1B1C8;fill-opacity:1;fill-rule:nonzero;stroke:none"
         d="m 649.219,606.75 c -9.375,-0.492 -16.731,-5.902 -16.36,-12.207 0.305,-6.148 8.137,-10.781 17.493,-10.23 9.394,0.468 16.718,5.812 16.406,12.144 -0.371,6.219 -8.211,10.793 -17.539,10.293" /><path
         id="path64"
         style="fill:#C1B1C8;fill-opacity:1;fill-rule:nonzero;stroke:none"
         d="m 691.609,607.957 c -17.3,5.625 -23.757,-15.113 -21.316,-21.848 2.434,-6.707 21.348,-15.261 30.684,-2.808 2.277,-15.918 21.843,-13.414 26.601,-8.133 4.668,5.41 5.227,24.137 -9.453,28.648 6.609,10.043 -5.098,26.95 -12.234,27.727 -7.051,0.734 -22.434,-7.766 -14.282,-23.586" /><path
         id="path66"
         style="fill:#C1B1C8;fill-opacity:1;fill-rule:nonzero;stroke:none"
         d="m 252.598,672.328 c 7.882,-5.437 11.379,-14.187 7.695,-19.433 -3.652,-5.254 -13.035,-5.04 -20.918,0.492 -7.949,5.504 -11.406,14.242 -7.695,19.468 3.64,5.254 13.008,5.04 20.918,-0.527" /><path
         id="path68"
         style="fill:#C1B1C8;fill-opacity:1;fill-rule:nonzero;stroke:none"
         d="m 252.656,640.965 c 6.953,-6.707 9.063,-15.891 4.571,-20.457 -4.473,-4.641 -13.653,-3 -20.606,3.711 -6.926,6.703 -9.023,15.879 -4.57,20.48 4.414,4.574 13.633,2.942 20.605,-3.734" /><path
         id="path70"
         style="fill:#C1B1C8;fill-opacity:1;fill-rule:nonzero;stroke:none"
         d="m 178.43,630.922 c 0.554,-9.609 6.179,-17.156 12.644,-16.813 6.387,0.43 11.121,8.5 10.535,18.168 -0.554,9.641 -6.211,17.121 -12.546,16.75 -6.407,-0.402 -11.192,-8.496 -10.633,-18.105" /><path
         id="path72"
         style="fill:#C1B1C8;fill-opacity:1;fill-rule:nonzero;stroke:none"
         d="m 205.227,614.418 c 2.039,-9.426 8.804,-16.008 15.078,-14.613 6.211,1.32 9.636,10.101 7.547,19.461 -2.012,9.519 -8.75,16.074 -15,14.711 -6.27,-1.418 -9.668,-10.164 -7.625,-19.559" /><path
         id="path74"
         style="fill:#C1B1C8;fill-opacity:1;fill-rule:nonzero;stroke:none"
         d="m 197.012,657.25 c -2.852,-18.512 19.238,-21.637 25.676,-18.016 6.394,3.582 11.96,24.192 -2.141,31.61 15.73,4.98 10.051,24.383 3.867,28.34 -6.152,3.957 -25.371,1.39 -27.559,-14.336 -11.25,5.16 -26.484,-9.586 -26.054,-16.91 0.371,-7.415 11.523,-21.54 26.211,-10.688" /><path
         id="path76"
         style="fill:#C1B1C8;fill-opacity:1;fill-rule:nonzero;stroke:none"
         d="m 670.906,305.07 c 0.032,-9.55 -5.164,-17.422 -11.558,-17.39 -6.399,0 -11.594,7.84 -11.528,17.449 -0.039,9.687 5.2,17.5 11.594,17.434 6.387,0 11.555,-7.813 11.492,-17.493" /><path
         id="path78"
         style="fill:#C1B1C8;fill-opacity:1;fill-rule:nonzero;stroke:none"
         d="m 645.195,287.152 c -1.543,-9.55 -7.882,-16.504 -14.179,-15.422 -6.375,1.028 -10.274,9.493 -8.719,19.043 1.543,9.512 7.879,16.465 14.207,15.45 6.269,-1.024 10.176,-9.52 8.691,-19.071" /><path
         id="path80"
         style="fill:#C1B1C8;fill-opacity:1;fill-rule:nonzero;stroke:none"
         d="m 594.609,342.375 c -7.578,-5.926 -10.578,-14.863 -6.621,-19.961 4.024,-5.008 13.321,-4.297 20.95,1.699 7.605,5.969 10.515,14.864 6.582,19.864 -3.95,5.05 -13.34,4.336 -20.911,-1.602" /><path
         id="path82"
         style="fill:#C1B1C8;fill-opacity:1;fill-rule:nonzero;stroke:none"
         d="m 596.34,310.98 c -6.582,-7.082 -8.137,-16.378 -3.402,-20.742 4.64,-4.355 13.781,-2.16 20.277,4.922 6.668,7.07 8.211,16.336 3.555,20.703 -4.766,4.325 -13.887,2.137 -20.43,-4.883" /><path
         id="path84"
         style="fill:#C1B1C8;fill-opacity:1;fill-rule:nonzero;stroke:none"
         d="m 626.809,342.16 c -16.809,-8.222 -6.77,-28.152 -0.129,-31.367 6.582,-3.211 26.672,3.957 24.726,19.777 13.074,-10.078 25.774,5.664 25.496,12.977 -0.242,7.324 -13.328,21.633 -27.5,14.465 -2.168,12.176 -22.964,16.289 -28.75,11.777 -5.867,-4.543 -11.121,-21.758 6.157,-27.629" /><path
         id="path86"
         style="fill:#C1B1C8;fill-opacity:1;fill-rule:nonzero;stroke:none"
         d="m 149.375,143.578 c 0.066,-0.129 -0.059,-0.129 -0.059,-0.129 0,0 0,-0.125 -0.058,-0.183 0.097,0.125 0.058,0.183 0.117,0.312 z m 84.688,99.199 c -0.442,0.243 -0.711,0.43 -1.18,0.489 4.793,8.476 3.465,19.031 -4.113,25.468 -8.438,7.235 -21.192,6.172 -28.399,-2.472 -15.266,-18.231 2.5,-35.535 4.727,-36.336 l -49.043,-58.039 c -1.016,2.09 -22.617,15.011 -37.891,-2.969 -7.195,-8.523 -6.113,-21.199 2.5,-28.496 8.262,-7.039 20.867,-5.879 28.035,2.285 -6.863,-8.523 -5.711,-21.074 2.571,-28.113 8.496,-7.18 21.289,-6.125 28.398,2.402 7.227,8.524 6.738,17.734 1.516,33.008 l 48.23,57.226 c 12.617,-2.285 25.293,-1.347 32.52,7.208 7.168,8.523 6.086,21.199 -2.442,28.496 -7.512,6.211 -18.105,5.898 -25.429,-0.157" /><path
         id="path88"
         style="fill:#C1B1C8;fill-opacity:1;fill-rule:nonzero;stroke:none"
         d="m 602.793,730.707 c -0.098,-0.059 -0.098,-0.152 -0.098,-0.152 -0.058,0.031 -0.246,0.152 -0.3,0.152 0.117,-0.094 0.183,0 0.398,0 z m 144.102,-12.328 c -0.059,0.519 -0.149,0.984 -0.184,1.48 10.633,1.02 19.344,8.996 20.242,20.118 1.027,12.207 -8.215,23.023 -20.605,24.074 -26.211,2.07 -30.45,-25.34 -29.793,-27.785 l -83.91,6.582 c 1.078,2.472 -1.082,30.32 -27.137,32.359 -12.266,1.02 -23.047,-8.25 -24.016,-20.488 -1.012,-12.242 7.949,-22.774 20.102,-23.985 -12.121,0.715 -22.727,-8.343 -23.614,-20.429 -1.046,-12.387 8.192,-23.11 20.458,-24.164 12.265,-0.953 20.3,5.472 30.656,20.093 l 82.722,-6.617 c 6.153,-12.949 15.204,-23.699 27.539,-24.722 12.239,-0.93 23.086,8.312 24.075,20.582 0.828,10.847 -6.457,20.058 -16.535,22.902" /><path
         id="path90"
         style="fill:#C1B1C8;fill-opacity:1;fill-rule:nonzero;stroke:none"
         d="m 161.777,550.848 c -0.078,-0.063 -0.078,-0.121 -0.078,-0.121 -0.066,0 -0.254,0.121 -0.312,0.121 0.078,-0.063 0.195,0 0.39,0 z m 142.559,-24.535 c -0.066,0.554 -0.039,0.992 -0.066,1.484 10.691,0.086 20.046,7.351 21.882,18.289 2.071,12.113 -6.25,23.68 -18.515,25.777 -25.867,4.297 -32.442,-22.621 -32.012,-25.183 l -83.066,13.75 c 1.289,2.347 1.543,30.285 -24.258,34.515 -12.117,2.043 -23.692,-6.211 -25.656,-18.355 -2.079,-12.145 5.949,-23.36 17.941,-25.586 -12.023,1.734 -23.34,-6.402 -25.254,-18.359 -2.129,-12.239 6.172,-23.758 18.328,-25.805 12.16,-2.035 20.695,3.711 32.219,17.371 l 81.926,-13.66 c 5.008,-13.352 13.074,-24.875 25.281,-26.946 12.148,-1.921 23.73,6.301 25.742,18.477 1.817,10.754 -4.668,20.523 -14.492,24.231" /><path
         id="path92"
         style="fill:#C1B1C8;fill-opacity:1;fill-rule:nonzero;stroke:none"
         d="m 759.23,268.508 c -0.128,-0.028 -0.128,-0.117 -0.128,-0.117 -0.059,0.058 -0.184,0.214 -0.247,0.246 0.063,-0.09 0.188,-0.059 0.375,-0.129 z m 127.079,-69.09 c 0.117,0.496 0.246,0.957 0.429,1.387 10.098,-3.301 21.289,0.527 26.563,10.32 5.847,10.793 1.711,24.414 -9.207,30.313 -23.137,12.433 -38.039,-10.958 -38.403,-13.465 l -74.238,39.675 c 1.985,1.829 11.164,28.215 -11.89,40.508 -10.813,5.852 -24.418,1.739 -30.188,-9.14 -5.84,-10.782 -1.895,-24.012 8.77,-29.969 -10.848,5.496 -24.141,1.445 -29.844,-9.277 -5.938,-10.911 -1.77,-24.446 9.082,-30.352 10.84,-5.801 20.793,-3.117 36.086,6.094 l 73.152,-39.239 c 0.469,-14.289 4.414,-27.824 15.274,-33.703 10.898,-5.703 24.5,-1.629 30.339,9.219 5.161,9.609 2.161,20.949 -5.925,27.629" /><path
         id="path94"
         style="fill:#C1B1C8;fill-opacity:1;fill-rule:nonzero;stroke:none"
         d="m 545.469,575.453 c 0,0.027 -0.071,0 -0.156,0.027 0.085,0.094 0.085,0.188 0.031,0.403 -0.031,-0.188 0.183,-0.281 0.125,-0.43 z m 28.894,-134.25 c 0.371,0.059 0.864,0.305 1.289,0.586 3.813,-9.363 13.578,-15.047 23.801,-12.793 11.504,2.473 18.731,13.789 16.199,25.305 -5.41,24.383 -31.406,20.644 -33.535,19.324 l -17.207,78.059 c 2.473,-0.309 27.192,9.457 21.848,33.593 -2.57,11.559 -13.914,18.692 -25.371,16.254 -11.309,-2.535 -18.477,-13.629 -16.145,-24.972 -2.683,11.187 -13.98,18.328 -25.176,15.761 -11.492,-2.504 -18.699,-13.781 -16.101,-25.246 2.414,-11.465 10.508,-16.969 26.609,-22.437 l 16.992,-76.949 c -10.039,-9.051 -17.3,-20.086 -14.773,-31.708 2.539,-11.457 13.918,-18.761 25.383,-16.132 10.094,2.195 16.492,11.347 16.187,21.355" /><path
         id="path96"
         style="fill:#C1B1C8;fill-opacity:1;fill-rule:nonzero;stroke:none"
         d="m 349.172,233.781 c -9.582,3.157 -15.578,10.813 -13.469,17.16 2.031,6.329 11.485,8.993 21.074,5.801 9.512,-3.183 15.567,-10.91 13.536,-17.207 -2.11,-6.34 -11.622,-8.879 -21.141,-5.754" /><path
         id="path98"
         style="fill:#C1B1C8;fill-opacity:1;fill-rule:nonzero;stroke:none"
         d="m 339.719,265.18 c -8.899,4.609 -13.664,13.203 -10.637,19.07 3.027,5.898 12.676,7.012 21.699,2.402 8.965,-4.597 13.723,-13.132 10.684,-19.031 -3.027,-5.996 -12.793,-7.012 -21.746,-2.441" /><path
         id="path100"
         style="fill:#C1B1C8;fill-opacity:1;fill-rule:nonzero;stroke:none"
         d="m 410.859,297.23 c -3.464,9.481 -11.25,15.321 -17.558,13.036 -6.238,-2.227 -8.535,-11.746 -5.137,-21.172 3.406,-9.512 11.316,-15.293 17.617,-13.035 6.25,2.293 8.535,11.836 5.078,21.171" /><path
         id="path102"
         style="fill:#C1B1C8;fill-opacity:1;fill-rule:nonzero;stroke:none"
         d="m 379.199,305.883 c -4.875,8.711 -13.523,13.25 -19.336,10.066 -5.808,-3.242 -6.621,-13.008 -1.797,-21.844 4.883,-8.742 13.536,-13.292 19.414,-10.078 5.872,3.25 6.614,12.989 1.719,21.856" /><path
         id="path104"
         style="fill:#C1B1C8;fill-opacity:1;fill-rule:nonzero;stroke:none"
         d="m 400.281,265.422 c -2.84,19.328 -25.769,15.859 -31.14,10.363 -5.262,-5.508 -4.707,-27.785 11.621,-30.91 -14.16,-9.676 -2.793,-27.469 4.57,-29.48 7.41,-2.102 25.703,6.21 23.359,22.527 12.735,-1.758 23.418,17.492 20.899,24.746 -2.539,7.148 -17.988,17.988 -29.309,2.754" /><path
         id="path106"
         style="fill:#C1B1C8;fill-opacity:1;fill-rule:nonzero;stroke:none"
         d="m 881.633,331.313 c -3.43,-9.485 -11.281,-15.266 -17.524,-12.981 -6.304,2.219 -8.687,11.75 -5.214,21.231 3.46,9.425 11.332,15.273 17.609,13.039 6.238,-2.286 8.523,-11.868 5.129,-21.289" /><path
         id="path108"
         style="fill:#C1B1C8;fill-opacity:1;fill-rule:nonzero;stroke:none"
         d="m 849.961,322.746 c -4.856,-8.738 -13.574,-13.25 -19.356,-10.066 -5.808,3.211 -6.64,12.879 -1.777,21.758 4.844,8.835 13.527,13.339 19.336,10.125 5.906,-3.184 6.641,-12.977 1.797,-21.817" /><path
         id="path110"
         style="fill:#C1B1C8;fill-opacity:1;fill-rule:nonzero;stroke:none"
         d="m 819.98,394.789 c -9.57,-3.184 -15.632,-10.793 -13.535,-17.16 2.039,-6.297 11.493,-8.867 21.016,-5.742 9.609,3.117 15.605,10.879 13.535,17.246 -2.101,6.301 -11.594,8.84 -21.016,5.656" /><path
         id="path112"
         style="fill:#C1B1C8;fill-opacity:1;fill-rule:nonzero;stroke:none"
         d="m 810.438,363.422 c -8.875,-4.641 -13.668,-13.164 -10.633,-19.074 3.054,-5.899 12.824,-6.981 21.777,-2.41 8.879,4.636 13.672,13.144 10.645,19.109 -3.094,5.957 -12.793,6.973 -21.789,2.375" /><path
         id="path114"
         style="fill:#C1B1C8;fill-opacity:1;fill-rule:nonzero;stroke:none"
         d="m 851.477,383.324 c -19.407,-2.297 -16.594,-25.312 -11.262,-30.84 5.351,-5.41 27.629,-5.507 31.223,10.711 9.277,-14.422 27.378,-3.582 29.597,3.723 2.324,7.352 -5.461,25.887 -21.847,24.012 2.14,12.668 -16.805,23.906 -24.129,21.601 -7.2,-2.351 -18.516,-17.468 -3.582,-29.207" /><path
         id="path116"
         style="fill:#C1B1C8;fill-opacity:1;fill-rule:nonzero;stroke:none"
         d="m 420.496,514.195 c 6.059,8.071 15.234,11.282 20.551,7.262 5.379,-3.953 4.851,-13.75 -1.242,-21.816 -6.055,-8.008 -15.325,-11.278 -20.664,-7.286 -5.293,3.985 -4.668,13.84 1.355,21.84" /><path
         id="path118"
         style="fill:#C1B1C8;fill-opacity:1;fill-rule:nonzero;stroke:none"
         d="m 453.281,513.09 c 7.207,6.945 16.848,8.711 21.446,3.976 4.609,-4.785 2.57,-14.269 -4.668,-21.32 -7.227,-7.043 -16.836,-8.808 -21.473,-4.043 -4.699,4.793 -2.531,14.367 4.695,21.387" /><path
         id="path120"
         style="fill:#C1B1C8;fill-opacity:1;fill-rule:nonzero;stroke:none"
         d="m 460.82,435.453 c 10.118,0.215 18.106,5.723 17.989,12.422 -0.118,6.621 -8.411,11.836 -18.418,11.648 -10.11,-0.144 -18.106,-5.839 -17.989,-12.507 0.157,-6.641 8.504,-11.868 18.418,-11.563" /><path
         id="path122"
         style="fill:#C1B1C8;fill-opacity:1;fill-rule:nonzero;stroke:none"
         d="m 479.148,462.648 c 9.836,1.829 16.938,8.567 15.762,15.11 -1.199,6.523 -10.222,10.418 -20.125,8.691 -9.844,-1.855 -16.933,-8.566 -15.754,-15.148 1.203,-6.61 10.168,-10.438 20.117,-8.653" /><path
         id="path124"
         style="fill:#C1B1C8;fill-opacity:1;fill-rule:nonzero;stroke:none"
         d="m 434.102,455.637 c 19.218,-3.496 23.261,19.347 19.765,26.183 -3.515,6.727 -24.785,13.368 -32.969,-1.093 -4.628,16.503 -25.128,11.433 -29.394,5.105 -4.387,-6.336 -2.371,-26.367 13.848,-29.363 -5.743,-11.465 9.062,-27.785 16.757,-27.715 7.559,0.144 22.801,11.277 11.993,26.883" /><path
         id="path126"
         style="fill:#C1B1C8;fill-opacity:1;fill-rule:nonzero;stroke:none"
         d="m 660.215,917.594 c 6.055,8.062 15.234,11.277 20.547,7.258 5.383,-3.95 4.851,-13.75 -1.231,-21.817 -6.054,-8.004 -15.343,-11.273 -20.676,-7.289 -5.292,3.984 -4.675,13.84 1.36,21.848" /><path
         id="path128"
         style="fill:#C1B1C8;fill-opacity:1;fill-rule:nonzero;stroke:none"
         d="m 692.996,916.48 c 7.199,6.954 16.848,8.719 21.445,3.985 4.614,-4.789 2.571,-14.277 -4.668,-21.32 -7.222,-7.047 -16.835,-8.805 -21.472,-4.047 -4.696,4.789 -2.531,14.367 4.695,21.382" /><path
         id="path130"
         style="fill:#C1B1C8;fill-opacity:1;fill-rule:nonzero;stroke:none"
         d="m 700.535,838.852 c 10.11,0.214 18.11,5.714 17.988,12.421 -0.125,6.61 -8.394,11.84 -18.418,11.657 -10.105,-0.16 -18.113,-5.848 -17.988,-12.516 0.156,-6.652 8.496,-11.871 18.418,-11.562" /><path
         id="path132"
         style="fill:#C1B1C8;fill-opacity:1;fill-rule:nonzero;stroke:none"
         d="m 718.855,866.047 c 9.844,1.82 16.946,8.555 15.774,15.113 -1.211,6.52 -10.234,10.414 -20.117,8.684 -9.864,-1.86 -16.946,-8.563 -15.762,-15.149 1.199,-6.609 10.168,-10.437 20.105,-8.648" /><path
         id="path134"
         style="fill:#C1B1C8;fill-opacity:1;fill-rule:nonzero;stroke:none"
         d="m 673.809,859.031 c 19.218,-3.492 23.269,19.348 19.777,26.172 -3.52,6.742 -24.785,13.383 -32.973,-1.078 -4.636,16.504 -25.125,11.434 -29.383,5.098 -4.394,-6.332 -2.382,-26.36 13.836,-29.356 -5.75,-11.465 9.055,-27.785 16.758,-27.726 7.563,0.164 22.793,11.285 11.985,26.89" /><path
         id="path136"
         style="fill:#C1B1C8;fill-opacity:1;fill-rule:nonzero;stroke:none"
         d="m 453.809,703.02 c 3.457,9.453 11.367,15.386 17.617,13.097 6.301,-2.281 8.711,-11.804 5.195,-21.32 -3.406,-9.457 -11.25,-15.332 -17.617,-13.102 -6.25,2.282 -8.594,11.864 -5.195,21.325" /><path
         id="path138"
         style="fill:#C1B1C8;fill-opacity:1;fill-rule:nonzero;stroke:none"
         d="m 485.645,711.668 c 4.753,8.84 13.535,13.414 19.46,10.266 5.754,-3.219 6.672,-12.985 1.797,-22.008 -4.89,-8.778 -13.601,-13.352 -19.402,-10.133 -5.996,3.27 -6.738,13.035 -1.855,21.875" /><path
         id="path140"
         style="fill:#C1B1C8;fill-opacity:1;fill-rule:nonzero;stroke:none"
         d="m 516.055,639.418 c 9.511,3.219 15.566,10.941 13.465,17.305 -2.165,6.3 -11.622,8.898 -21.2,5.625 -9.582,-3.153 -15.632,-10.938 -13.535,-17.246 2.168,-6.426 11.68,-8.899 21.27,-5.684" /><path
         id="path142"
         style="fill:#C1B1C8;fill-opacity:1;fill-rule:nonzero;stroke:none"
         d="m 525.449,670.934 c 8.899,4.703 13.653,13.293 10.559,19.226 -3.086,5.871 -12.793,6.985 -21.82,2.289 -8.954,-4.574 -13.719,-13.105 -10.633,-19.101 3.093,-5.996 12.863,-7.047 21.894,-2.414" /><path
         id="path144"
         style="fill:#C1B1C8;fill-opacity:1;fill-rule:nonzero;stroke:none"
         d="m 484.219,650.91 c 19.531,2.227 16.621,25.406 11.25,30.973 -5.379,5.492 -27.754,5.433 -31.406,-10.883 -9.329,14.523 -27.442,3.523 -29.661,-3.77 -2.293,-7.417 5.559,-26.082 22.004,-24.042 -2.109,-12.731 16.934,-24.043 24.285,-21.696 7.297,2.406 18.606,17.613 3.528,29.418" /><path
         id="path146"
         style="fill:#C1B1C8;fill-opacity:1;fill-rule:nonzero;stroke:none"
         d="m 905.129,689.852 c -0.473,-10.075 -6.211,-18.11 -12.863,-17.801 -6.707,0.277 -11.868,8.656 -11.368,18.793 0.403,10.008 6.114,17.98 12.852,17.761 6.641,-0.273 11.777,-8.714 11.379,-18.753" /><path
         id="path148"
         style="fill:#C1B1C8;fill-opacity:1;fill-rule:nonzero;stroke:none"
         d="m 877.371,672.02 c -1.883,-9.852 -8.863,-16.872 -15.476,-15.633 -6.434,1.328 -10.274,10.347 -8.321,20.422 2,9.859 8.938,16.839 15.449,15.511 6.707,-1.32 10.352,-10.41 8.348,-20.3" /><path
         id="path150"
         style="fill:#C1B1C8;fill-opacity:1;fill-rule:nonzero;stroke:none"
         d="m 826.633,731.785 c -8.11,-5.93 -11.567,-15.105 -7.649,-20.547 3.965,-5.383 13.758,-5.004 21.922,0.992 8.188,5.899 11.614,15.141 7.715,20.516 -3.973,5.5 -13.808,4.973 -21.988,-0.961" /><path
         id="path152"
         style="fill:#C1B1C8;fill-opacity:1;fill-rule:nonzero;stroke:none"
         d="m 827.148,698.91 c -7.07,-7.176 -9.023,-16.781 -4.289,-21.512 4.719,-4.695 14.297,-2.843 21.504,4.36 7.168,7.074 9.153,16.621 4.387,21.414 -4.758,4.789 -14.375,2.848 -21.602,-4.262" /><path
         id="path154"
         style="fill:#C1B1C8;fill-opacity:1;fill-rule:nonzero;stroke:none"
         d="m 860.469,730.398 c -17.957,-8.007 -8.223,-29.238 -1.426,-32.914 6.77,-3.648 28.098,3.153 26.672,19.809 13.262,-11.031 27.223,4.883 27.156,12.516 -0.058,7.757 -13.152,23.207 -28.215,16.316 -1.824,12.766 -23.386,17.832 -29.695,13.387 -6.238,-4.485 -12.449,-22.41 5.508,-29.114" /><path
         id="path156"
         style="fill:#C1B1C8;fill-opacity:1;fill-rule:nonzero;stroke:none"
         d="m 358.203,362.211 c -0.469,-10.07 -6.211,-18.106 -12.871,-17.793 -6.699,0.273 -11.855,8.652 -11.367,18.777 0.41,10.02 6.125,17.989 12.851,17.774 6.653,-0.274 11.778,-8.711 11.387,-18.758" /><path
         id="path158"
         style="fill:#C1B1C8;fill-opacity:1;fill-rule:nonzero;stroke:none"
         d="m 330.438,344.379 c -1.883,-9.856 -8.856,-16.867 -15.477,-15.637 -6.426,1.34 -10.266,10.363 -8.313,20.43 2.004,9.863 8.938,16.836 15.454,15.519 6.707,-1.328 10.347,-10.41 8.336,-20.312" /><path
         id="path160"
         style="fill:#C1B1C8;fill-opacity:1;fill-rule:nonzero;stroke:none"
         d="m 279.707,404.152 c -8.105,-5.937 -11.562,-15.117 -7.637,-20.554 3.953,-5.383 13.75,-5 21.907,0.996 8.191,5.898 11.621,15.136 7.722,20.515 -3.984,5.5 -13.808,4.973 -21.992,-0.957" /><path
         id="path162"
         style="fill:#C1B1C8;fill-opacity:1;fill-rule:nonzero;stroke:none"
         d="m 280.227,371.273 c -7.082,-7.168 -9.028,-16.777 -4.289,-21.515 4.726,-4.688 14.296,-2.84 21.503,4.355 7.168,7.082 9.141,16.633 4.395,21.426 -4.766,4.785 -14.375,2.832 -21.609,-4.266" /><path
         id="path164"
         style="fill:#C1B1C8;fill-opacity:1;fill-rule:nonzero;stroke:none"
         d="m 313.535,402.758 c -17.949,-8 -8.222,-29.231 -1.426,-32.903 6.778,-3.66 28.106,3.145 26.68,19.797 13.262,-11.027 27.227,4.891 27.168,12.52 -0.066,7.762 -13.164,23.211 -28.223,16.316 -1.816,12.766 -23.386,17.832 -29.687,13.379 -6.25,-4.472 -12.461,-22.402 5.488,-29.109" /><path
         id="path166"
         style="fill:#C1B1C8;fill-opacity:1;fill-rule:nonzero;stroke:none"
         d="m -37.7344,604.809 c 0,-0.067 -0.0976,-0.036 -0.0976,-0.036 0,0 -0.0782,-0.093 -0.1641,-0.093 0.0859,0.035 0.1641,0.093 0.2617,0.129 z m 126.9922,29.824 c -0.1758,0.457 -0.332,0.801 -0.625,1.137 8.8672,3.953 14.0232,13.257 11.7382,22.902 -2.5194,10.844 -13.3983,17.582 -24.3358,14.859 -23.1172,-5.687 -19.043,-30.16 -17.7149,-32.074 l -73.8867,-17.738 c 0.418,2.32 -9.3438,25.492 -32.2774,20.058 -10.8671,-2.597 -17.4687,-13.476 -14.9101,-24.449 2.5195,-10.566 13.3594,-17.09 23.9648,-14.801 -10.6054,-2.808 -17.0703,-13.566 -14.5703,-24.164 2.6289,-10.785 13.5352,-17.523 24.3164,-14.867 10.8477,2.567 15.9492,10.32 20.74222,25.684 l 72.77348,17.554 c 8.8086,-9.277 19.5898,-16.074 30.4492,-13.441 10.8081,2.621 17.4411,13.441 14.9021,24.406 -2.344,9.457 -11.1326,15.485 -20.5662,14.934" /><path
         id="path168"
         style="fill:#C1B1C8;fill-opacity:1;fill-rule:nonzero;stroke:none"
         d="m 464.133,43.8516 c -0.09,-0.0703 -0.129,0.0586 -0.129,0.0586 0,0 -0.098,0 -0.156,0.0586 0.097,-0.0899 0.156,-0.0586 0.285,-0.1172 z m 99.195,-84.6719 c 0.246,0.4297 0.461,0.7109 0.52,1.1719 8.437,-4.793 19.043,-3.461 25.437,4.1093 7.231,8.4297 6.211,21.1993 -2.469,28.39847 -18.23,15.26954 -35.539,-2.50781 -36.308,-4.73047 l -58.035,49.043 c 2.097,1.0234 15.015,22.625 -2.969,37.8906 -8.527,7.1953 -21.203,6.1211 -28.496,-2.5 -7.043,-8.2539 -5.871,-20.8594 2.254,-28.0273 -8.528,6.8554 -21.074,5.7109 -28.086,-2.5704 -7.168,-8.496 -6.121,-21.289 2.383,-28.4062 8.554,-7.22657 17.773,-6.73047 33.007,-1.5039 l 57.227,-48.2461 c -2.258,-12.6094 -1.328,-25.2695 7.168,-32.5195 8.562,-7.1602 21.199,-6.0782 28.516,2.4492 6.25,7.5117 5.91,18.1133 -0.149,25.4414" /><path
         id="path170"
         style="fill:#C1B1C8;fill-opacity:1;fill-rule:nonzero;stroke:none"
         d="m 64.2266,889.641 c 0.0898,0.089 0.1367,0.043 0.1367,0.043 0.1094,-0.028 0.168,-0.09 0.2851,-0.106 -0.2031,0.027 -0.2031,0.027 -0.4218,0.063 z m -109.2852,71.015 c -0.207,-0.398 -0.332,-0.801 -0.4961,-1.234 -8.9492,3.711 -19.3086,0.914 -24.5625,-7.344 -6.0625,-9.359 -3.3984,-21.859 6.0938,-27.906 19.9609,-12.758 34.9218,7.172 35.3515,9.41 l 63.9727,-40.941 c -1.8828,-1.379 -11.9102,-24.524 7.8633,-37.223 9.4414,-5.996 21.8828,-3.262 27.9492,6.16 5.918,9.211 3.2422,21.524 -5.8594,27.586 9.3164,-5.781 21.6094,-3.062 27.4219,6.227 6.1055,9.328 3.3789,21.859 -5.957,27.808 -9.4922,6.043 -18.4766,4.371 -32.9375,-2.777 l -63.13677,40.344 c 0.66406,12.714 -1.86333,25.218 -11.28123,31.199 -9.4219,5.992 -21.8242,3.305 -27.8985,-6.121 -5.2148,-8.27 -3.5234,-18.711 3.4766,-25.188" /><path
         id="path172"
         style="fill:#C1B1C8;fill-opacity:1;fill-rule:nonzero;stroke:none"
         d="m -56.6992,94.0938 c -0.0391,-0.086 -0.0391,-0.086 -0.0391,-0.1758 -0.0976,0.0586 -0.2344,0.1484 -0.3125,0.1484 0.0781,0 0.2149,0 0.3516,0.0274 z M 83.8086,59.9258 c 0.0195,0.457 0.1172,0.957 0.0391,1.4726 10.6445,-0.6132 20.5473,6.0274 23.0543,16.6993 C 109.805,90.1484 102.324,102.23 90.293,105.07 64.7461,111.098 56.3281,84.7695 56.6992,82.1133 l -81.9805,19.4917 c 1.3829,2.196 3.543,30.04 -21.8359,36.004 -12.0234,2.871 -24.1328,-4.511 -26.9141,-16.589 -2.8632,-11.868 4.3829,-23.7036 16.1211,-26.7387 -11.8554,2.5976 -23.6328,-4.668 -26.4648,-16.6211 -2.8711,-11.9922 4.6094,-24.0743 16.6797,-26.9141 11.9726,-2.8711 20.7617,2.2734 33.3398,15.0781 L 46.3672,46.5664 c 4.043,-13.5273 11.3281,-25.5586 23.3008,-28.4297 12.0508,-2.8398 24.1523,4.6016 26.9922,16.5938 2.4726,10.6054 -3.293,20.8593 -12.8516,25.1953" /><path
         id="path174"
         style="fill:#C1B1C8;fill-opacity:1;fill-rule:nonzero;stroke:none"
         d="m 124.473,-39.1016 c -0.032,-0.1172 0.039,-0.1484 0.039,-0.1484 -0.071,-0.0313 -0.227,-0.0898 -0.282,-0.1211 0.086,0 0.125,0.1211 0.243,0.2695 z m 109.492,94.5039 c -0.43,0.3125 -0.801,0.586 -1.172,0.9102 6.68,8.3008 7.043,20.1055 -0.254,28.5156 -8.027,9.2657 -22.246,10.1953 -31.609,2.0782 C 181.113,69.6211 197.742,47.4336 200,46.1953 L 136.621,-9.25 c -0.957,2.51172 -22.441,20.4063 -42.0897,3.19141 -9.2579,-8.07031 -10.2149,-22.25001 -2.0704,-31.49221 8.0191,-9.2578 21.8161,-10.2305 31.1521,-2.3789 -8.965,-8.1914 -9.89,-22.0586 -1.855,-31.1797 8.086,-9.3906 22.246,-10.289 31.543,-2.2304 9.277,8.1093 10.293,18.3593 7.09,35.9492 l 62.507,54.5703 c 13.54,-4.6094 27.571,-5.6836 36.907,2.4023 9.199,8.1641 10.195,22.3555 2.09,31.6211 -7.168,8.2227 -18.848,9.4258 -27.93,4.1992" /><path
         id="path176"
         style="fill:#C1B1C8;fill-opacity:1;fill-rule:nonzero;stroke:none"
         d="m -42.0313,374.387 c -0.039,0.031 -0.0781,-0.059 -0.125,-0.086 -0.0507,0.058 -0.1367,0.215 -0.2656,0.242 0.1563,-0.086 0.3125,-0.027 0.3906,-0.156 z M 73.6914,300.441 c 0.2149,0.372 0.332,0.832 0.4609,1.329 9.3633,-3.868 20.3008,-0.926 25.8747,7.91 6.321,9.883 3.371,23.019 -6.609,29.367 -21.1328,13.308 -36.7774,-7.824 -37.2852,-10.305 l -67.6641,42.746 c 2.01177,1.512 12.4688,25.926 -8.5,39.18 -9.9492,6.211 -23.0625,3.281 -29.3437,-6.613 -6.2109,-9.883 -3.2813,-22.742 6.3477,-29.082 -9.8438,5.996 -22.7813,3 -28.9375,-6.766 -6.2657,-9.941 -3.2891,-23.019 6.6132,-29.258 9.9219,-6.308 19.5118,-4.426 34.7461,3.153 l 66.6016,-42.059 c -0.6367,-13.516 2.1484,-26.457 12.1484,-32.824 9.9414,-6.27 23.1055,-3.34 29.336,6.672 5.5078,8.777 3.4765,19.754 -3.7891,26.55" /><path
         id="path178"
         style="fill:#C1B1C8;fill-opacity:1;fill-rule:nonzero;stroke:none"
         d="m 890.867,26.5469 c 0.071,0.0273 0,0.0976 0,0.1836 0.102,0 0.254,-0.0274 0.344,0.0898 -0.156,-0.0586 -0.188,-0.2734 -0.344,-0.2734 z M 771.25,-40.8906 c 0.215,-0.3711 0.586,-0.711 0.957,-1.0508 -7.793,-6.3984 -10.32,-17.4297 -5.164,-26.5391 5.75,-10.2383 18.727,-13.7812 29.02,-7.9414 21.691,12.4219 10.382,36.1211 8.441,37.75 l 69.5,39.652369 c 0.398,-2.460939 17.051,-23.160169 38.562,-10.902349 10.176,5.8711 13.723,18.82032 7.981,29.04688 -5.813,10.0781 -18.543,13.5742 -28.66,8.0078 9.898,5.8672 13.328,18.7578 7.578,28.7383 -5.813,10.2344 -18.75,13.7227 -28.957,7.8828 C 860.313,58 857.473,48.6367 857.004,31.6445 L 788.586,-7.41016 C 776.973,-0.5 764.258,3.11719 753.945,-2.71875 743.723,-8.55859 740.09,-21.5703 746.023,-31.7617 c 5.168,-9 15.801,-12.3789 25.227,-9.1289" /><path
         id="path180"
         style="fill:#C1B1C8;fill-opacity:1;fill-rule:nonzero;stroke:none"
         d="m -10.7148,453.684 c -9.5782,3.156 -15.5743,10.82 -13.504,17.16 2.0704,6.328 11.5118,8.992 21.07427,5.808 9.53125,-3.183 15.57423,-10.918 13.52733,-17.214 -2.08202,-6.34 -11.57421,-8.868 -21.0976,-5.754" /><path
         id="path182"
         style="fill:#C1B1C8;fill-opacity:1;fill-rule:nonzero;stroke:none"
         d="m -20.1953,485.09 c -8.8867,4.601 -13.6602,13.195 -10.6445,19.062 3.0273,5.907 12.7148,7.02 21.73824,2.414 8.925779,-4.605 13.71094,-13.136 10.67578,-19.043 -3.05078,-5.996 -12.79302,-7.011 -21.76952,-2.433" /><path
         id="path184"
         style="fill:#C1B1C8;fill-opacity:1;fill-rule:nonzero;stroke:none"
         d="m 50.9258,517.133 c -3.4375,9.484 -11.2383,15.328 -17.5586,13.043 -6.2188,-2.231 -8.5039,-11.746 -5.125,-21.168 3.4492,-9.524 11.3555,-15.305 17.6367,-13.039 6.25,2.285 8.5156,11.832 5.0469,21.164" /><path
         id="path186"
         style="fill:#C1B1C8;fill-opacity:1;fill-rule:nonzero;stroke:none"
         d="m 19.3281,525.785 c -4.8828,8.719 -13.56638,13.262 -19.374975,10.078 -5.812505,-3.25 -6.632815,-13.015 -1.808595,-21.851 4.89453,-8.746 13.55467,-13.289 19.41407,-10.074 5.8906,3.246 6.6523,12.98 1.7695,21.847" /><path
         id="path188"
         style="fill:#C1B1C8;fill-opacity:1;fill-rule:nonzero;stroke:none"
         d="m 40.3516,485.336 c -2.8125,19.309 -25.7227,15.852 -31.13285,10.352 -5.25391,-5.5 -4.6875,-27.786 11.64845,-30.899 -14.19923,-9.68 -2.8203,-27.48 4.5625,-29.492 7.4297,-2.09 25.7226,6.211 23.3398,22.539 12.7344,-1.77 23.4571,17.48 20.8985,24.754 -2.5391,7.129 -17.9492,17.98 -29.3164,2.746" /><path
         id="path190"
         style="fill:#C1B1C8;fill-opacity:1;fill-rule:nonzero;stroke:none"
         d="m 643.953,-7.01172 c -9.566,3.15234 -15.562,10.8125 -13.473,17.14062 2.04,6.3399 11.493,8.9961 21.075,5.8125 9.519,-3.1836 15.574,-10.89843 13.511,-17.21093 -2.078,-6.32031 -11.589,-8.85937 -21.113,-5.74219" /><path
         id="path192"
         style="fill:#C1B1C8;fill-opacity:1;fill-rule:nonzero;stroke:none"
         d="m 634.504,24.3789 c -8.899,4.6094 -13.664,13.1914 -10.664,19.0703 3.023,5.8985 12.691,7.0235 21.719,2.4141 8.961,-4.6016 13.726,-13.1367 10.703,-19.043 -3.032,-5.9883 -12.793,-7.0117 -21.758,-2.4414" /><path
         id="path194"
         style="fill:#C1B1C8;fill-opacity:1;fill-rule:nonzero;stroke:none"
         d="m 705.605,56.4297 c -3.425,9.4922 -11.218,15.332 -17.546,13.0351 -6.211,-2.2265 -8.496,-11.7382 -5.129,-21.1601 3.425,-9.5234 11.34,-15.3047 17.636,-13.0391 6.25,2.2774 8.536,11.8282 5.039,21.1641" /><path
         id="path196"
         style="fill:#C1B1C8;fill-opacity:1;fill-rule:nonzero;stroke:none"
         d="m 673.992,65.082 c -4.883,8.711 -13.531,13.2618 -19.344,10.0782 -5.808,-3.2422 -6.64,-13.0196 -1.816,-21.8477 4.902,-8.75 13.555,-13.3008 19.434,-10.0859 5.871,3.25 6.613,12.9765 1.726,21.8554" /><path
         id="path198"
         style="fill:#C1B1C8;fill-opacity:1;fill-rule:nonzero;stroke:none"
         d="m 695.039,24.6328 c -2.812,19.3047 -25.742,15.8477 -31.121,10.3516 -5.246,-5.5 -4.688,-27.78518 11.617,-30.91018 -14.18,-9.66406 -2.808,-27.47262 4.582,-29.47262 7.41,-2.1133 25.703,6.207 23.36,22.51949 12.734,-1.76953 23.425,17.50001 20.886,24.75781 -2.539,7.1367 -17.984,17.9883 -29.324,2.7539" /><path
         id="path200"
         style="fill:#C1B1C8;fill-opacity:1;fill-rule:nonzero;stroke:none"
         d="m 35.9375,226.449 c 8.7109,-3.429 13.9453,-10.957 11.7383,-16.711 -2.2852,-5.84 -11.211,-7.695 -19.9414,-4.285 -8.7031,3.36 -13.9531,10.867 -11.668,16.707 2.2227,5.813 11.1797,7.695 19.8711,4.289" /><path
         id="path202"
         style="fill:#C1B1C8;fill-opacity:1;fill-rule:nonzero;stroke:none"
         d="m 43.1055,196.703 c 8.164,-4.707 12.1601,-12.902 8.9843,-18.301 -3.164,-5.343 -12.2656,-5.871 -20.332,-1.144 -8.0469,4.765 -12.0703,12.922 -8.957,18.293 3.1172,5.41 12.2773,5.965 20.3047,1.152" /><path
         id="path204"
         style="fill:#C1B1C8;fill-opacity:1;fill-rule:nonzero;stroke:none"
         d="m 4.31641,160.91 c 4.08203,-8.437 11.90239,-13.125 17.57809,-10.379 5.5469,2.657 6.8164,11.68 2.6953,20.086 -4.0429,8.496 -11.8164,13.184 -17.54683,10.449 C 1.46484,178.344 0.273438,169.32 4.31641,160.91" /><path
         id="path206"
         style="fill:#C1B1C8;fill-opacity:1;fill-rule:nonzero;stroke:none"
         d="m -13.1563,199.574 c 1.4961,-18.136 23.11724,-16.105 28.3711,-11.25 5.2813,4.824 5.879,25.586 -9.21871,29.395 13.78911,8.242 3.94532,25.332 -2.73437,27.683 -6.79688,2.219 -24.31642,-4.48 -22.79302,-19.785 -11.8554,2.227 -22.8906,-15.078 -20.8515,-21.961 2.043,-6.797 15.7734,-17.715 27.2265,-4.082" /><path
         id="path208"
         style="fill:#C1B1C8;fill-opacity:1;fill-rule:nonzero;stroke:none"
         d="m 3.9375,796.066 c 4.65625,8.469 12.957,12.887 18.5625,9.735 5.625,-3.121 6.4258,-12.422 1.7695,-20.863 -4.6797,-8.43 -12.9804,-12.856 -18.62497,-9.762 -5.5468737,3.09 -6.359374,12.422 -1.70703,20.89" /><path
         id="path210"
         style="fill:#C1B1C8;fill-opacity:1;fill-rule:nonzero;stroke:none"
         d="m 32.8906,726.996 c 9.1485,3.027 14.9688,10.442 12.9688,16.567 -2.0703,6.082 -11.1133,8.558 -20.2735,5.468 -9.1601,-3.058 -14.9414,-10.445 -12.9218,-16.468 2.0429,-6.09 11.0976,-8.594 20.2265,-5.567" /><path
         id="path212"
         style="fill:#C1B1C8;fill-opacity:1;fill-rule:nonzero;stroke:none"
         d="m 41.8555,757.156 c 8.6133,4.422 13.164,12.672 10.2265,18.36 -2.9414,5.656 -12.2773,6.675 -20.7929,2.226 -8.6524,-4.418 -13.2032,-12.613 -10.2735,-18.297 2.9883,-5.687 12.3438,-6.707 20.8399,-2.289" /><path
         id="path214"
         style="fill:#C1B1C8;fill-opacity:1;fill-rule:nonzero;stroke:none"
         d="m 2.65625,738.094 c 18.59375,2.07 15.87895,24.199 10.70315,29.476 -5.09768,5.254 -26.4649,5.254 -29.961,-10.289 -8.8867,13.907 -26.1523,3.367 -28.3593,-3.644 -2.2461,-6.953 5.2421,-24.852 21.0039,-22.867 -2.0196,-12.207 16.1445,-23.086 23.117156,-20.774 7.031254,2.293 17.785144,16.754 3.496094,28.098" /><path
         id="path216"
         style="fill:#C1B1C8;fill-opacity:1;fill-rule:nonzero;stroke:none"
         d="m 287.207,32.9141 c 3.438,9.4218 11.348,15.3593 17.59,13.0664 6.336,-2.2578 8.711,-11.7774 5.223,-21.2891 -3.438,-9.4922 -11.282,-15.36327 -17.618,-13.1367 -6.269,2.2969 -8.593,11.875 -5.195,21.3594" /><path
         id="path218"
         style="fill:#C1B1C8;fill-opacity:1;fill-rule:nonzero;stroke:none"
         d="m 319.043,41.5352 c 4.758,8.8671 13.496,13.4375 19.434,10.2539 5.781,-3.211 6.679,-12.9766 1.828,-21.9727 -4.914,-8.7695 -13.606,-13.3789 -19.407,-10.1367 -5.996,3.2812 -6.738,13.0195 -1.855,21.8555" /><path
         id="path220"
         style="fill:#C1B1C8;fill-opacity:1;fill-rule:nonzero;stroke:none"
         d="M 358.809,0.832031 C 367.715,5.5 372.473,14.0938 369.414,20.0625 c -3.086,5.8672 -12.82,6.9414 -21.816,2.2461 -8.965,-4.5703 -13.75,-13.09766 -10.664,-19.09376 3.086,-5.99609 12.851,-7.01562 21.875,-2.382809" /><path
         id="path222"
         style="fill:#C1B1C8;fill-opacity:1;fill-rule:nonzero;stroke:none"
         d="m 317.617,-19.1914 c 19.531,2.2226 16.621,25.40624 11.25,30.9336 -5.41,5.5351 -27.754,5.4766 -31.426,-10.851575 -9.296,14.531275 -27.414,3.527345 -29.668,-3.769535 -2.253,-7.41019 5.586,-26.08199 22,-24.07029 -2.097,-12.7305 16.965,-24.0391 24.29,-21.6602 7.324,2.3789 18.613,17.5899 3.554,29.418" /><path
         id="path224"
         style="fill:#C1B1C8;fill-opacity:1;fill-rule:nonzero;stroke:none"
         d="m 464.133,1041.71 c -0.09,-0.06 -0.129,0.06 -0.129,0.06 0,0 -0.098,0 -0.156,0.07 0.097,-0.09 0.156,-0.07 0.285,-0.13 z m 99.195,-84.667 c 0.246,0.43 0.461,0.707 0.52,1.168 8.437,-4.785 19.043,-3.457 25.437,4.117 7.231,8.438 6.211,21.195 -2.469,28.399 -18.23,15.263 -35.539,-2.508 -36.308,-4.727 l -58.035,49.04 c 2.097,1.02 15.015,22.62 -2.969,37.89 -8.527,7.2 -21.203,6.12 -28.496,-2.51 -7.043,-8.24 -5.871,-20.85 2.254,-28.03 -8.528,6.86 -21.074,5.72 -28.086,-2.56 -7.168,-8.49 -6.121,-21.29 2.383,-28.4 8.554,-7.23 17.773,-6.73 33.007,-1.52 l 57.227,-48.234 c -2.258,-12.61 -1.328,-25.278 7.168,-32.512 8.562,-7.164 21.199,-6.086 28.516,2.445 6.25,7.508 5.91,18.11 -0.149,25.434" /><path
         id="path226"
         style="fill:#C1B1C8;fill-opacity:1;fill-rule:nonzero;stroke:none"
         d="m 124.473,958.773 c -0.032,-0.125 0.039,-0.156 0.039,-0.156 -0.071,-0.031 -0.227,-0.09 -0.282,-0.125 0.086,0 0.125,0.125 0.243,0.281 z m 109.492,94.497 c -0.43,0.31 -0.801,0.59 -1.172,0.9 6.68,8.31 7.043,20.12 -0.254,28.52 -8.027,9.27 -22.246,10.2 -31.609,2.07 -19.817,-17.27 -3.188,-39.46 -0.93,-40.69 l -63.379,-55.449 c -0.957,2.504 -22.441,20.399 -42.0897,3.188 -9.2579,-8.071 -10.2149,-22.25 -2.0704,-31.493 8.0191,-9.269 21.8161,-10.23 31.1521,-2.378 -8.965,-8.188 -9.89,-22.067 -1.855,-31.184 8.086,-9.395 22.246,-10.293 31.543,-2.227 9.277,8.102 10.293,18.356 7.09,35.946 l 62.507,54.577 c 13.54,-4.61 27.571,-5.69 36.907,2.4 9.199,8.17 10.195,22.35 2.09,31.62 -7.168,8.22 -18.848,9.42 -27.93,4.2" /><path
         id="path228"
         style="fill:#C1B1C8;fill-opacity:1;fill-rule:nonzero;stroke:none"
         d="m 890.867,1024.41 c 0.071,0.03 0,0.09 0,0.18 0.102,0 0.254,-0.03 0.344,0.09 -0.156,-0.05 -0.188,-0.27 -0.344,-0.27 z M 771.25,956.98 c 0.215,-0.375 0.586,-0.714 0.957,-1.05 -7.793,-6.395 -10.32,-17.43 -5.164,-26.551 5.75,-10.227 18.727,-13.781 29.02,-7.941 21.691,12.421 10.382,36.128 8.441,37.765 l 69.5,39.649 c 0.398,-2.469 17.051,-23.176 38.562,-10.911 10.176,5.875 13.723,18.819 7.981,29.059 -5.813,10.07 -18.543,13.56 -28.66,7.99 9.898,5.88 13.328,18.77 7.578,28.75 -5.813,10.23 -18.75,13.72 -28.957,7.87 -10.195,-5.74 -13.035,-15.1 -13.504,-32.1 l -68.418,-39.065 c -11.613,6.926 -24.328,10.545 -34.641,4.7 -10.222,-5.84 -13.855,-18.852 -7.922,-29.047 5.168,-8.996 15.801,-12.364 25.227,-9.118" /><path
         id="path230"
         style="fill:#C1B1C8;fill-opacity:1;fill-rule:nonzero;stroke:none"
         d="M 643.953,990.848 C 634.387,994 628.391,1001.66 630.48,1008 c 2.04,6.33 11.493,9 21.075,5.81 9.519,-3.18 15.574,-10.91 13.511,-17.212 -2.078,-6.332 -11.589,-8.871 -21.113,-5.75" /><path
         id="path232"
         style="fill:#C1B1C8;fill-opacity:1;fill-rule:nonzero;stroke:none"
         d="m 695.039,1022.49 c -2.812,19.31 -25.742,15.86 -31.121,10.36 -5.246,-5.5 -4.688,-27.79 11.617,-30.91 -14.18,-9.667 -2.808,-27.471 4.582,-29.475 7.41,-2.106 25.703,6.211 23.36,22.527 12.734,-1.765 23.425,17.488 20.886,24.748 -2.539,7.14 -17.984,17.99 -29.324,2.75" /><path
         id="path234"
         style="fill:#C1B1C8;fill-opacity:1;fill-rule:nonzero;stroke:none"
         d="m 349.453,967.145 c 9.512,3.214 15.535,10.972 13.438,17.312 -2.168,6.332 -11.621,8.93 -21.172,5.648 -9.571,-3.183 -15.625,-10.937 -13.535,-17.277 2.168,-6.39 11.66,-8.894 21.269,-5.683" /><path
         id="path236"
         style="fill:#C1B1C8;fill-opacity:1;fill-rule:nonzero;stroke:none"
         d="m 358.809,998.699 c 8.906,4.661 13.664,13.261 10.605,19.221 -3.086,5.87 -12.82,6.95 -21.816,2.25 -8.965,-4.57 -13.75,-13.1 -10.664,-19.09 3.086,-5.994 12.851,-7.014 21.875,-2.381" /><path
         id="path238"
         style="fill:#C1B1C8;fill-opacity:1;fill-rule:nonzero;stroke:none"
         d="m 317.617,978.676 c 19.531,2.219 16.621,25.404 11.25,30.934 -5.41,5.53 -27.754,5.46 -31.426,-10.852 -9.296,14.532 -27.414,3.522 -29.668,-3.766 -2.253,-7.418 5.586,-26.09 22,-24.078 -2.097,-12.734 16.965,-24.043 24.29,-21.66 7.324,2.379 18.613,17.586 3.554,29.422" /><path
         id="path240"
         style="fill:#C1B1C8;fill-opacity:1;fill-rule:nonzero;stroke:none"
         d="m 962.422,604.809 c 0,-0.067 -0.125,-0.036 -0.125,-0.036 0,0 -0.063,-0.093 -0.168,-0.093 0.105,0.035 0.168,0.093 0.293,0.129 z m 126.968,29.824 c -0.18,0.457 -0.34,0.801 -0.61,1.137 8.87,3.953 14,13.257 11.71,22.902 -2.5,10.844 -13.38,17.582 -24.32,14.859 -23.12,-5.687 -19.03,-30.16 -17.71,-32.074 l -73.89,-17.738 c 0.403,2.32 -9.355,25.492 -32.297,20.058 -10.835,-2.597 -17.449,-13.476 -14.89,-24.449 2.527,-10.566 13.347,-17.09 23.972,-14.801 -10.625,-2.808 -17.078,-13.566 -14.578,-24.164 2.625,-10.785 13.536,-17.523 24.317,-14.867 10.847,2.567 15.957,10.32 20.742,25.684 l 72.774,17.554 c 8.81,-9.277 19.6,-16.074 30.44,-13.441 10.82,2.621 17.43,13.441 14.89,24.406 -2.34,9.457 -11.12,15.485 -20.55,14.934" /><path
         id="path242"
         style="fill:#C1B1C8;fill-opacity:1;fill-rule:nonzero;stroke:none"
         d="m 1064.37,889.641 c 0.08,0.089 0.15,0.043 0.15,0.043 0.09,-0.028 0.15,-0.09 0.25,-0.106 -0.19,0.027 -0.19,0.027 -0.4,0.063 z m -109.311,71.015 c -0.188,-0.398 -0.313,-0.801 -0.496,-1.234 -8.926,3.711 -19.282,0.914 -24.536,-7.344 -6.05,-9.359 -3.394,-21.859 6.086,-27.906 19.973,-12.758 34.922,7.172 35.364,9.41 l 63.963,-40.941 c -1.89,-1.379 -11.9,-24.524 7.88,-37.223 9.42,-5.996 21.88,-3.262 27.93,6.16 5.94,9.211 3.21,21.524 -5.87,27.586 9.34,-5.781 21.64,-3.062 27.44,6.227 6.09,9.328 3.38,21.859 -5.95,27.808 -9.5,6.043 -18.49,4.371 -32.94,-2.777 l -63.149,40.344 c 0.684,12.714 -1.855,25.218 -11.277,31.199 -9.426,5.992 -21.848,3.305 -27.902,-6.121 -5.196,-8.27 -3.528,-18.711 3.457,-25.188" /><path
         id="path244"
         style="fill:#C1B1C8;fill-opacity:1;fill-rule:nonzero;stroke:none"
         d="m 943.438,94.0938 c -0.059,-0.086 -0.059,-0.086 -0.059,-0.1758 -0.066,0.0586 -0.215,0.1484 -0.313,0.1484 0.098,0 0.247,0 0.372,0.0274 z m 140.492,-34.168 c 0.06,0.457 0.12,0.957 0.06,1.4726 10.63,-0.6132 20.51,6.0274 23.05,16.6993 2.9,12.0507 -4.57,24.1323 -16.62,26.9723 -25.54,6.028 -33.94,-20.3005 -33.56,-22.9567 l -82.016,19.4917 c 1.418,2.196 3.547,30.04 -21.817,36.004 -12.019,2.871 -24.14,-4.511 -26.922,-16.589 -2.875,-11.868 4.383,-23.7036 16.102,-26.7387 -11.836,2.5976 -23.613,-4.668 -26.453,-16.6211 -2.856,-11.9922 4.637,-24.0743 16.687,-26.9141 11.993,-2.8711 20.774,2.2734 33.34,15.0781 L 1046.5,46.5664 c 4.06,-13.5273 11.34,-25.5586 23.3,-28.4297 12.06,-2.8398 24.14,4.6016 26.99,16.5938 2.47,10.6054 -3.28,20.8593 -12.86,25.1953" /><path
         id="path246"
         style="fill:#C1B1C8;fill-opacity:1;fill-rule:nonzero;stroke:none"
         d="m 958.086,374.387 c 0,0.031 -0.059,-0.059 -0.125,-0.086 -0.031,0.058 -0.117,0.215 -0.246,0.242 0.156,-0.086 0.312,-0.027 0.371,-0.156 z m 115.764,-73.946 c 0.18,0.372 0.31,0.832 0.43,1.329 9.36,-3.868 20.31,-0.926 25.91,7.91 6.29,9.883 3.33,23.019 -6.62,29.367 -21.14,13.308 -36.77,-7.824 -37.31,-10.305 l -67.639,42.746 c 1.977,1.512 12.449,25.926 -8.531,39.18 -9.953,6.211 -23.047,3.281 -29.328,-6.613 -6.211,-9.883 -3.274,-22.742 6.34,-29.082 -9.829,5.996 -22.786,3 -28.926,-6.766 -6.281,-9.941 -3.281,-23.019 6.621,-29.258 9.91,-6.308 19.519,-4.426 34.723,3.153 l 66.63,-42.059 c -0.64,-13.516 2.14,-26.457 12.11,-32.824 9.95,-6.27 23.12,-3.34 29.36,6.672 5.5,8.777 3.46,19.754 -3.77,26.55" /><path
         id="path248"
         style="fill:#C1B1C8;fill-opacity:1;fill-rule:nonzero;stroke:none"
         d="m 989.426,453.684 c -9.582,3.156 -15.578,10.82 -13.508,17.16 2.07,6.328 11.531,8.992 21.074,5.808 9.548,-3.183 15.578,-10.918 13.508,-17.214 -2.03,-6.34 -11.555,-8.868 -21.074,-5.754" /><path
         id="path250"
         style="fill:#C1B1C8;fill-opacity:1;fill-rule:nonzero;stroke:none"
         d="m 979.934,485.09 c -8.871,4.601 -13.657,13.195 -10.657,19.062 3.028,5.907 12.735,7.02 21.758,2.414 8.926,-4.605 13.725,-13.136 10.695,-19.043 -3.058,-5.996 -12.804,-7.011 -21.796,-2.433" /><path
         id="path252"
         style="fill:#C1B1C8;fill-opacity:1;fill-rule:nonzero;stroke:none"
         d="m 1019.46,525.785 c -4.88,8.719 -13.56,13.262 -19.37,10.078 -5.813,-3.25 -6.645,-13.015 -1.828,-21.851 4.908,-8.746 13.568,-13.289 19.448,-10.074 5.89,3.246 6.64,12.98 1.75,21.847" /><path
         id="path254"
         style="fill:#C1B1C8;fill-opacity:1;fill-rule:nonzero;stroke:none"
         d="m 975.391,170.461 c 2.722,-8.992 9.765,-14.863 15.73,-13.066 5.969,1.777 8.625,10.558 5.942,19.523 -2.817,9.023 -9.868,14.832 -15.793,13.008 -5.965,-1.758 -8.536,-10.539 -5.879,-19.465" /><path
         id="path256"
         style="fill:#C1B1C8;fill-opacity:1;fill-rule:nonzero;stroke:none"
         d="m 986.98,199.574 c 1.516,-18.136 23.12,-16.105 28.37,-11.25 5.28,4.824 5.87,25.586 -9.24,29.395 13.82,8.242 3.96,25.332 -2.72,27.683 -6.796,2.219 -24.288,-4.48 -22.804,-19.785 -11.836,2.227 -22.871,-15.078 -20.828,-21.961 2.039,-6.797 15.762,-17.715 27.222,-4.082" /><path
         id="path258"
         style="fill:#C1B1C8;fill-opacity:1;fill-rule:nonzero;stroke:none"
         d="m 973.75,787.844 c 3.254,9.023 10.793,14.679 16.785,12.492 6.059,-2.168 8.281,-11.285 5,-20.344 -3.269,-9.082 -10.808,-14.707 -16.836,-12.48 -6.023,2.16 -8.25,11.246 -4.949,20.332" /><path
         id="path260"
         style="fill:#C1B1C8;fill-opacity:1;fill-rule:nonzero;stroke:none"
         d="m 1004.07,796.066 c 4.64,8.469 12.99,12.887 18.54,9.735 5.62,-3.121 6.43,-12.422 1.79,-20.863 -4.69,-8.43 -12.97,-12.856 -18.6,-9.762 -5.56,3.09 -6.359,12.422 -1.73,20.89" /><path
         id="path262"
         style="fill:#C1B1C8;fill-opacity:1;fill-rule:nonzero;stroke:none"
         d="m 1002.77,738.094 c 18.61,2.07 15.89,24.199 10.73,29.476 -5.1,5.254 -26.48,5.254 -29.945,-10.289 -8.899,13.907 -26.172,3.367 -28.367,-3.644 -2.266,-6.953 5.25,-24.852 21.011,-22.867 -2.051,-12.207 16.125,-23.086 23.117,-20.774 7.014,2.293 17.774,16.754 3.454,28.098" /></g></g></svg>
